<?xml version="1.0" encoding="UTF-8" standalone="no"?>
<!-- Created with Inkscape (http://www.inkscape.org/) -->

<svg
   width="92.604164mm"
   height="57.230705mm"
   viewBox="0 0 92.604164 57.230705"
   version="1.1"
   id="svg1"
   xml:space="preserve"
   xmlns="http://www.w3.org/2000/svg"
   xmlns:svg="http://www.w3.org/2000/svg"><defs
     id="defs1" /><g
     id="layer1"
     transform="translate(379.06983,-117.32463)"><rect
       style="fill:#ffffff;fill-opacity:1;stroke-width:0.204147;stroke-linecap:round;stroke-linejoin:round;stroke-miterlimit:21.4;paint-order:markers fill stroke"
       id="rect1-50-9-3-5-9-3-4"
       width="92.604164"
       height="57.230698"
       x="-379.06982"
       y="117.32463" /><g
       id="g3"
       transform="matrix(0.45387987,0,0,0.45387987,-280.90854,72.86867)"
       style="stroke-width:1.16587;stroke-dasharray:none"><path
         style="fill:none;stroke:#010101;stroke-width:1.16587;stroke-linecap:round;stroke-linejoin:round;stroke-miterlimit:12.7;stroke-dasharray:none;stroke-opacity:1;paint-order:stroke fill markers"
         d="m -136.38971,184.8288 4.76775,22.6468 -4.27111,3e-5 -4.37043,-22.54747"
         id="path1-5-0-0-6" /><path
         style="fill:none;stroke:#010101;stroke-width:1.16587;stroke-linecap:round;stroke-linejoin:round;stroke-miterlimit:12.7;stroke-dasharray:none;stroke-opacity:1;paint-order:stroke fill markers"
         d="m -155.73053,184.81294 -4.76775,22.6468 4.27111,3e-5 4.37043,-22.54747"
         id="path1-2-6-7" /><path
         style="fill:none;stroke:#010101;stroke-width:1.16587;stroke-linecap:round;stroke-linejoin:round;stroke-miterlimit:12.7;stroke-dasharray:none;stroke-opacity:1;paint-order:stroke fill markers"
         d="m -133.52421,184.50633 h -25.4603 l 0.0931,-4.5149 25.32067,0.0931 c 0,0 1.33669,4.37572 0.0465,4.4218 z"
         id="path2-3-2-5" /><path
         style="fill:#ffffff;fill-opacity:1;stroke:#010101;stroke-width:1.16587;stroke-linecap:round;stroke-linejoin:round;stroke-miterlimit:12.7;stroke-dasharray:none;stroke-opacity:1;paint-order:markers fill stroke"
         d="m -151.20866,180.01963 17.63791,0.0649 c 1.51705,8.72293 -1.63035,18.4559 -3.56447,27.47362 l 23.53884,-0.12292 -6.99487,-9.37362 4.49482,-13.7037 c 6.92957,-17.11021 -14.3578,-20.08331 -25.65333,-19.29481"
         id="path3-9-2-50" /><path
         style="fill:#ffffff;fill-opacity:1;stroke:#010101;stroke-width:1.16587;stroke-linecap:round;stroke-linejoin:round;stroke-miterlimit:12.7;stroke-dasharray:none;stroke-opacity:1;paint-order:markers fill stroke"
         d="m -151.35446,180.07048 c 0,0 -17.15742,-11.13727 1.60538,-42.54238"
         id="path4-9-5-5" /><path
         style="fill:none;fill-opacity:1;stroke:#010101;stroke-width:1.16587;stroke-linecap:round;stroke-linejoin:round;stroke-miterlimit:12.7;stroke-dasharray:none;stroke-opacity:1;paint-order:markers fill stroke"
         d="m -149.74908,137.5281 c 0,0 -4.40809,-17.87069 4.82554,-20.41465 9.23363,-2.54396 17.61624,8.71466 17.61624,8.71466 0,0 1.75461,2.67045 -1.5045,2.78026 l -3.64158,0.12271 -0.31569,9.58202 c 0,0 3.72554,22.74689 2.33388,27.24964"
         id="path5-7-2-2" /><circle
         style="fill:#000000;fill-opacity:1;stroke:none;stroke-width:1.16587;stroke-linecap:round;stroke-linejoin:round;stroke-miterlimit:12.7;stroke-dasharray:none;stroke-opacity:1;paint-order:markers fill stroke"
         id="path6-0-2-0"
         cx="-136.10533"
         cy="125.98175"
         r="1.1029841" /><path
         style="fill:none;fill-opacity:1;stroke:#010101;stroke-width:1.16587;stroke-linecap:round;stroke-linejoin:round;stroke-miterlimit:12.7;stroke-dasharray:none;stroke-opacity:1;paint-order:markers fill stroke"
         d="m -132.63739,134.31633 c 0,0 -9.58256,3.36253 -12.52896,-6.11106"
         id="path7-3-7-7" /><path
         style="fill:#ffffff;fill-opacity:1;stroke:none;stroke-width:1.16587;stroke-linecap:round;stroke-linejoin:round;stroke-miterlimit:12.7;stroke-dasharray:none;stroke-opacity:1;paint-order:markers fill stroke"
         d="m -134.48732,144.76184 6.0329,-0.76611 0.88156,9.08333 -6.17794,-0.23835 z"
         id="path14-9-1-7" /><g
         id="g21-8-5-9"
         transform="rotate(53.483179,-55.120301,-84.228782)"
         style="stroke-width:1.16587;stroke-dasharray:none" /><path
         style="fill:none;fill-opacity:1;stroke:#010101;stroke-width:1.16587;stroke-linecap:round;stroke-linejoin:round;stroke-miterlimit:12.7;stroke-dasharray:none;stroke-opacity:1;paint-order:markers fill stroke"
         d="m -78.998493,165.02211 v 42.41359 h -3.76339 v -37.47841 h -24.692157 v 37.47841 h -3.82591 v -42.39836"
         id="path18-7-1-7" /><path
         style="fill:none;fill-opacity:1;stroke:#010101;stroke-width:1.16587;stroke-linecap:round;stroke-linejoin:round;stroke-miterlimit:12.7;stroke-dasharray:none;stroke-opacity:1;paint-order:markers fill stroke"
         d="m -116.83802,164.74066 v -3.63427 h 43.166247 v 3.63431 z"
         id="path19-6-0-5" /><path
         style="fill:none;fill-opacity:1;stroke:#010101;stroke-width:1.16587;stroke-linecap:round;stroke-linejoin:round;stroke-miterlimit:12.7;stroke-dasharray:none;stroke-opacity:1;paint-order:markers fill stroke"
         d="m -82.761713,157.93329 3.99632,-20.92809 h -2.0045 l -3.94374,20.82292"
         id="path20-2-1-3" /><path
         style="fill:none;fill-opacity:1;stroke:#010101;stroke-width:1.16587;stroke-linecap:round;stroke-linejoin:round;stroke-miterlimit:12.7;stroke-dasharray:none;stroke-opacity:1;paint-order:markers fill stroke"
         d="m -106.47672,161.10639 v -2.64393 h 23.662417 v 2.64393"
         id="path21-7-8-9" /><path
         style="fill:none;fill-opacity:1;stroke:#010101;stroke-width:1.16587;stroke-linecap:round;stroke-linejoin:round;stroke-miterlimit:12.7;stroke-dasharray:none;stroke-opacity:1;paint-order:markers fill stroke"
         d="m -143.18938,153.11711 c 0,0 5.4713,-1.42232 19.4091,0.20359 6.01107,0.70122 12.72151,5.45943 12.72151,5.45943"
         id="path12-9-0-9" /><path
         style="fill:none;fill-opacity:1;stroke:#010101;stroke-width:1.16587;stroke-linecap:round;stroke-linejoin:round;stroke-miterlimit:12.7;stroke-dasharray:none;stroke-opacity:1;paint-order:markers fill stroke"
         d="m -112.52938,152.78464 c 0,0 3.10445,1.5393 5.14983,3.98094"
         id="path13-9-0-49" /><path
         style="fill:none;fill-opacity:1;stroke:#010101;stroke-width:1.16587;stroke-linecap:round;stroke-linejoin:round;stroke-miterlimit:12.7;stroke-dasharray:none;stroke-opacity:1;paint-order:markers fill stroke"
         d="m -142.60362,143.6684 c 6.12762,2.74322 26.7308,-5.52565 40.39213,11.63035"
         id="path11-9-9-1" /></g><path
       style="font-weight:bold;font-size:12.7px;line-height:1;font-family:'Noto IKEA Latin';-inkscape-font-specification:'Noto IKEA Latin Bold';letter-spacing:-0.0926042px;word-spacing:0px;stroke-width:1.05833;stroke-linecap:round;stroke-linejoin:round;stroke-miterlimit:3.1;paint-order:stroke fill markers"
       d="m -372.32547,125.46681 q 0,-0.3302 0.0127,-0.8636 0.0254,-0.5334 0.0381,-0.9398 -0.0635,0.0762 -0.2794,0.2794 -0.2032,0.1905 -0.381,0.3429 l -1.0414,0.8382 -0.9271,-1.1557 2.921,-2.3241 h 1.5748 v 9.0678 h -1.9177 z"
       id="text2-5-5"
       aria-label="1" /></g></svg>
