<?xml version="1.0" encoding="UTF-8" standalone="no"?>
<!-- Created with Inkscape (http://www.inkscape.org/) -->

<svg
   width="350"
   height="216.30518"
   viewBox="0 0 92.604168 57.230742"
   version="1.1"
   id="svg1"
   xml:space="preserve"
   xmlns="http://www.w3.org/2000/svg"
   xmlns:svg="http://www.w3.org/2000/svg"><defs
     id="defs1" /><g
     id="layer1"
     transform="translate(757.22777,-880.54484)"><rect
       style="fill:#000000;fill-opacity:1;stroke:none;stroke-width:0.204147;stroke-linecap:round;stroke-linejoin:round;stroke-miterlimit:21.4;stroke-opacity:1;paint-order:markers fill stroke"
       id="rect1-50-9-3-5-9-8"
       width="92.604164"
       height="57.230698"
       x="-757.22772"
       y="880.54486" /><path
       style="font-weight:bold;font-size:32.4556px;line-height:1;font-family:'Noto IKEA Latin';-inkscape-font-specification:'Noto IKEA Latin Bold';letter-spacing:-0.264583px;word-spacing:0px;fill:#000000;fill-opacity:1;stroke:#ffffff;stroke-width:1.05833;stroke-linecap:round;stroke-linejoin:round;stroke-miterlimit:12.7;stroke-dasharray:none;stroke-opacity:1;paint-order:stroke fill markers"
       d="m -741.46225,905.31623 c -0.92703,0 -1.63562,0.3463 -2.12577,1.03891 -0.49015,0.69261 -0.73523,1.64094 -0.73523,2.84501 0,1.21473 0.22377,2.15774 0.6713,2.82903 0.45818,0.66064 1.18808,0.99096 2.1897,0.99096 0.46884,0 0.93235,-0.0533 1.39053,-0.15984 0.46885,-0.10655 0.97498,-0.25573 1.51841,-0.44753 v 2.02988 c -0.50081,0.20245 -0.99629,0.35162 -1.48644,0.44752 -0.49015,0.0959 -1.0389,0.14385 -1.64627,0.14385 -1.1721,0 -2.14175,-0.23975 -2.90894,-0.71924 -0.75654,-0.49015 -1.31595,-1.17211 -1.67824,-2.04586 -0.36229,-0.8844 -0.54343,-1.91265 -0.54343,-3.08476 0,-1.15079 0.20778,-2.16838 0.62335,-3.05279 0.41556,-0.8844 1.01759,-1.577 1.8061,-2.07781 0.79916,-0.50081 1.77414,-0.75122 2.92493,-0.75122 0.56474,0 1.12948,0.0746 1.69422,0.22377 0.57539,0.13852 1.12415,0.33032 1.64627,0.57539 l -0.78318,1.96594 c -0.42622,-0.20245 -0.85777,-0.37827 -1.29464,-0.52745 -0.42622,-0.14917 -0.84711,-0.22376 -1.26267,-0.22376 z m 14.55825,9.55796 h -2.41345 v -4.92283 h -4.52327 v 4.92283 h -2.41346 v -11.41201 h 2.41346 v 4.4753 h 4.52327 v -4.4753 h 2.41345 z m 9.73133,0 -0.83111,-2.71715 h -4.15565 l -0.83111,2.71715 h -2.60528 l 4.02778,-11.45997 h 2.9569 l 4.04374,11.45997 z m -2.23763,-7.40023 c -0.0533,-0.18114 -0.12253,-0.41023 -0.20778,-0.68728 -0.0852,-0.27704 -0.1705,-0.55941 -0.25575,-0.84711 -0.0852,-0.2877 -0.1545,-0.5381 -0.20777,-0.75121 -0.0533,0.21311 -0.12786,0.47949 -0.22377,0.79916 -0.0852,0.30901 -0.17048,0.60737 -0.25573,0.89506 -0.0746,0.27704 -0.1332,0.47417 -0.17582,0.59138 l -0.81514,2.65321 h 2.97287 z m 9.42767,7.40023 h -2.41346 v -9.39813 h -3.10076 v -2.01388 h 8.61496 v 2.01388 h -3.10074 z m 8.27688,-11.41201 c 1.52373,0 2.67452,0.21311 3.45237,0.63932 0.77785,0.42622 1.16678,1.17743 1.16678,2.25364 0,0.64998 -0.15451,1.19874 -0.46352,1.64627 -0.29835,0.44753 -0.7299,0.71924 -1.29463,0.81514 v 0.0799 c 0.38359,0.0746 0.7299,0.20778 1.03891,0.39958 0.309,0.19179 0.55408,0.46883 0.73523,0.83112 0.18114,0.36229 0.27171,0.84179 0.27171,1.4385 0,1.03358 -0.37294,1.84339 -1.11883,2.42944 -0.74589,0.58605 -1.76881,0.87908 -3.06877,0.87908 h -4.26752 v -11.41201 z m 0.27172,4.52324 c 0.70326,0 1.18808,-0.11188 1.45447,-0.33564 0.27704,-0.22377 0.41556,-0.54876 0.41556,-0.97498 0,-0.43687 -0.15983,-0.75121 -0.4795,-0.94301 -0.31967,-0.1918 -0.8258,-0.2877 -1.51841,-0.2877 h -1.27864 v 2.54133 z m -1.40652,1.91799 v 2.97288 h 1.58234 c 0.72456,0 1.23069,-0.13852 1.51839,-0.41557 0.2877,-0.28769 0.43155,-0.66596 0.43155,-1.13481 0,-0.42621 -0.14918,-0.76719 -0.44753,-1.02292 -0.28769,-0.26639 -0.81514,-0.39958 -1.58233,-0.39958 z m 18.55408,-0.75121 c 0,1.18275 -0.19712,2.21633 -0.59137,3.10074 -0.38359,0.87375 -0.97497,1.55571 -1.77413,2.04586 -0.79917,0.49015 -1.82209,0.73522 -3.06878,0.73522 -1.23604,0 -2.25897,-0.24507 -3.06879,-0.73522 -0.79916,-0.49015 -1.39587,-1.17743 -1.79012,-2.06184 -0.38359,-0.88441 -0.57538,-1.91799 -0.57538,-3.10074 0,-1.18276 0.19179,-2.21101 0.57538,-3.08476 0.39425,-0.87375 0.99096,-1.55038 1.79012,-2.02988 0.80982,-0.49015 1.83807,-0.73522 3.08476,-0.73522 1.23604,0 2.25364,0.24507 3.05281,0.73522 0.79916,0.4795 1.39054,1.16145 1.77413,2.04586 0.39425,0.87375 0.59137,1.902 0.59137,3.08476 z m -8.32724,0 c 0,1.19341 0.22909,2.13642 0.68727,2.82903 0.45819,0.68195 1.19342,1.02292 2.20569,1.02292 1.03357,0 1.77412,-0.34097 2.22165,-1.02292 0.44753,-0.69261 0.6713,-1.63562 0.6713,-2.82903 0,-1.20407 -0.22377,-2.14708 -0.6713,-2.82903 -0.44753,-0.68195 -1.18275,-1.02293 -2.20568,-1.02293 -1.02292,0 -1.76347,0.34098 -2.22166,1.02293 -0.45818,0.68195 -0.68727,1.62496 -0.68727,2.82903 z m 14.47834,5.72199 h -2.41348 v -9.39813 h -3.10074 v -2.01388 h 8.61496 v 2.01388 h -3.10074 z"
       id="text1-3-2"
       aria-label="CHATBÖT" /></g></svg>
