<?xml version="1.0" encoding="UTF-8" standalone="no"?>
<!-- Created with Inkscape (http://www.inkscape.org/) -->

<svg
   width="350"
   height="216.30493"
   viewBox="0 0 92.604168 57.230678"
   version="1.1"
   id="svg1"
   xml:space="preserve"
   xmlns="http://www.w3.org/2000/svg"
   xmlns:svg="http://www.w3.org/2000/svg"><defs
     id="defs1" /><g
     id="layer1"
     transform="translate(757.22765,-823.31418)"><rect
       style="fill:#ffffff;fill-opacity:1;stroke-width:0.204147;stroke-linecap:round;stroke-linejoin:round;stroke-miterlimit:21.4;paint-order:markers fill stroke"
       id="rect1-50-9-3-5-9"
       width="92.604164"
       height="57.230698"
       x="-757.22766"
       y="823.31415" /><path
       style="font-weight:bold;font-size:32.4556px;line-height:1;font-family:'Noto IKEA Latin';-inkscape-font-specification:'Noto IKEA Latin Bold';letter-spacing:-0.264583px;word-spacing:0px;stroke-width:0.458633;stroke-linecap:round;stroke-linejoin:round;stroke-miterlimit:12.7;paint-order:markers fill stroke"
       d="m -741.4622,848.08554 q -1.39054,0 -2.12577,1.03891 -0.73523,1.03891 -0.73523,2.84501 0,1.82209 0.6713,2.82903 0.68727,0.99096 2.1897,0.99096 0.70326,0 1.39053,-0.15984 0.70327,-0.15983 1.51841,-0.44753 v 2.02988 q -0.75121,0.30367 -1.48644,0.44752 -0.73522,0.14385 -1.64627,0.14385 -1.75815,0 -2.90894,-0.71924 -1.13481,-0.73523 -1.67824,-2.04586 -0.54343,-1.3266 -0.54343,-3.08476 0,-1.72618 0.62335,-3.05279 0.62334,-1.3266 1.8061,-2.07781 1.19874,-0.75122 2.92493,-0.75122 0.84711,0 1.69422,0.22377 0.86309,0.20778 1.64627,0.57539 l -0.78318,1.96594 q -0.63933,-0.30368 -1.29464,-0.52745 -0.63933,-0.22376 -1.26267,-0.22376 z m 14.55825,9.55796 h -2.41345 v -4.92283 h -4.52327 v 4.92283 h -2.41346 v -11.41201 h 2.41346 v 4.4753 h 4.52327 v -4.4753 h 2.41345 z m 9.73133,0 -0.83111,-2.71715 h -4.15565 l -0.83111,2.71715 h -2.60528 l 4.02778,-11.45997 h 2.9569 l 4.04374,11.45997 z m -2.23763,-7.40023 q -0.0799,-0.27171 -0.20778,-0.68728 -0.12787,-0.41556 -0.25575,-0.84711 -0.12786,-0.43155 -0.20777,-0.75121 -0.0799,0.31966 -0.22377,0.79916 -0.12786,0.46352 -0.25573,0.89506 -0.11189,0.41556 -0.17582,0.59138 l -0.81514,2.65321 h 2.97287 z m 9.42767,7.40023 h -2.41346 v -9.39813 h -3.10076 v -2.01388 h 8.61496 v 2.01388 h -3.10074 z m 8.27688,-11.41201 q 2.28559,0 3.45237,0.63932 1.16678,0.63933 1.16678,2.25364 0,0.97497 -0.46352,1.64627 -0.44753,0.67129 -1.29463,0.81514 v 0.0799 q 0.57539,0.11188 1.03891,0.39958 0.4635,0.28769 0.73523,0.83112 0.27171,0.54343 0.27171,1.4385 0,1.55037 -1.11883,2.42944 -1.11883,0.87908 -3.06877,0.87908 h -4.26752 v -11.41201 z m 0.27172,4.52324 q 1.05489,0 1.45447,-0.33564 0.41556,-0.33565 0.41556,-0.97498 0,-0.65531 -0.4795,-0.94301 -0.4795,-0.2877 -1.51841,-0.2877 h -1.27864 v 2.54133 z m -1.40652,1.91799 v 2.97288 h 1.58234 q 1.08684,0 1.51839,-0.41557 0.43155,-0.43154 0.43155,-1.13481 0,-0.63932 -0.44753,-1.02292 -0.43154,-0.39958 -1.58233,-0.39958 z m 18.55408,-0.75121 q 0,1.77413 -0.59137,3.10074 -0.57539,1.31063 -1.77413,2.04586 -1.19875,0.73522 -3.06878,0.73522 -1.85406,0 -3.06879,-0.73522 -1.19874,-0.73523 -1.79012,-2.06184 -0.57538,-1.32661 -0.57538,-3.10074 0,-1.77414 0.57538,-3.08476 0.59138,-1.31063 1.79012,-2.02988 1.21473,-0.73522 3.08476,-0.73522 1.85406,0 3.05281,0.73522 1.19874,0.71925 1.77413,2.04586 0.59137,1.31062 0.59137,3.08476 z m -8.32724,0 q 0,1.79012 0.68727,2.82903 0.68728,1.02292 2.20569,1.02292 1.55036,0 2.22165,-1.02292 0.6713,-1.03891 0.6713,-2.82903 0,-1.8061 -0.6713,-2.82903 -0.67129,-1.02293 -2.20568,-1.02293 -1.53438,0 -2.22166,1.02293 -0.68727,1.02293 -0.68727,2.82903 z m 0.20778,-7.92768 q 0,-0.55941 0.31965,-0.79916 0.31967,-0.25573 0.76721,-0.25573 0.44753,0 0.76719,0.25573 0.33565,0.23975 0.33565,0.79916 0,0.52745 -0.33565,0.78318 -0.31966,0.25573 -0.76719,0.25573 -0.44754,0 -0.76721,-0.25573 -0.31965,-0.25573 -0.31965,-0.78318 z m 3.14868,0 q 0,-0.55941 0.31967,-0.79916 0.31966,-0.25573 0.78318,-0.25573 0.44753,0 0.7672,0.25573 0.33564,0.23975 0.33564,0.79916 0,0.52745 -0.33564,0.78318 -0.31967,0.25573 -0.7672,0.25573 -0.46352,0 -0.78318,-0.25573 -0.31967,-0.25573 -0.31967,-0.78318 z m 11.12188,13.64967 h -2.41348 v -9.39813 h -3.10074 v -2.01388 h 8.61496 v 2.01388 h -3.10074 z"
       id="text1-3-2-7"
       aria-label="CHATBÖT" /><g
       id="text1-8-6"
       style="font-weight:bold;font-size:9.68266px;line-height:1;font-family:'Noto IKEA Latin';-inkscape-font-specification:'Noto IKEA Latin Bold';letter-spacing:-0.323158px;word-spacing:0px;fill:#000000;fill-opacity:1;stroke:#010101;stroke-width:1.27807;stroke-linecap:round;stroke-linejoin:round;stroke-miterlimit:12.7;paint-order:markers fill stroke"
       aria-label="KANSKENÅGONDAGFÄRDIGT&#10;PROGRAMMERINGSPROJEKT"
       transform="matrix(0.49246399,0,0,0.49246399,-355.53242,299.72754)"><path
         style="fill:#000000;fill-opacity:1;stroke:none"
         d="m -786.86924,1147.3594 h -1.66541 l -1.81066,-2.9145 -0.61969,0.4454 v 2.4691 h -1.46208 v -6.9134 h 1.46208 v 3.1662 q 0.14524,-0.2034 0.29048,-0.4067 0.14524,-0.2033 0.29048,-0.4067 l 1.86875,-2.3528 h 1.62669 l -2.41098,3.0597 z m 4.7796,0 -0.50349,-1.6461 h -2.5175 l -0.50349,1.6461 h -1.57828 l 2.44003,-6.9425 h 1.79129 l 2.44972,6.9425 z m -1.35557,-4.4831 q -0.0484,-0.1646 -0.12587,-0.4164 -0.0775,-0.2517 -0.15493,-0.5131 -0.0775,-0.2615 -0.12587,-0.4551 -0.0484,0.1936 -0.13556,0.4841 -0.0775,0.2808 -0.15492,0.5422 -0.0678,0.2518 -0.10651,0.3583 l -0.49382,1.6073 h 1.80098 z m 9.61126,4.4831 h -1.85907 l -3.01131,-5.2287 h -0.0387 q 0.0194,0.4939 0.0387,0.9877 0.029,0.4938 0.0484,0.9876 v 3.2534 h -1.30716 v -6.9134 h 1.84939 l 3.00163,5.1802 h 0.029 q -0.01,-0.4842 -0.029,-0.9586 -0.0194,-0.4745 -0.0387,-0.9489 v -3.2727 h 1.31684 z m 5.49612,-1.9172 q 0,0.9199 -0.66811,1.4718 -0.65842,0.5422 -1.87843,0.5422 -1.09414,0 -1.9559,-0.4164 v -1.3652 q 0.49381,0.213 1.01668,0.397 0.53254,0.1743 1.05541,0.1743 0.54223,0 0.76493,-0.2034 0.23238,-0.213 0.23238,-0.5325 0,-0.2614 -0.18397,-0.4454 -0.17429,-0.184 -0.47445,-0.3389 -0.30016,-0.1646 -0.68747,-0.3486 -0.24206,-0.1162 -0.52286,-0.2711 -0.2808,-0.1646 -0.54223,-0.397 -0.25175,-0.2421 -0.41635,-0.5809 -0.16461,-0.3389 -0.16461,-0.8134 0,-0.9295 0.62937,-1.4427 0.62938,-0.5229 1.71383,-0.5229 0.54223,0 1.02637,0.1259 0.49381,0.1259 1.02636,0.3583 l -0.47445,1.1425 q -0.47445,-0.1936 -0.85208,-0.3001 -0.37762,-0.1066 -0.77461,-0.1066 -0.41635,0 -0.63905,0.1937 -0.22271,0.1937 -0.22271,0.5035 0,0.3679 0.32921,0.581 0.32922,0.213 0.97795,0.5228 0.53255,0.2518 0.90049,0.5229 0.37762,0.2711 0.58096,0.639 0.20334,0.368 0.20334,0.9102 z m 6.49344,1.9172 h -1.66542 l -1.81066,-2.9145 -0.61969,0.4454 v 2.4691 h -1.46208 v -6.9134 h 1.46208 v 3.1662 q 0.14524,-0.2034 0.29048,-0.4067 0.14524,-0.2033 0.29048,-0.4067 l 1.86875,-2.3528 h 1.62669 l -2.41098,3.0597 z m 4.52785,0 h -3.97958 v -6.9134 h 3.97958 v 1.2006 h -2.5175 v 1.5202 h 2.34321 v 1.2006 h -2.34321 v 1.7816 h 2.5175 z m 7.24868,0 h -1.85908 l -3.0113,-5.2287 h -0.0387 q 0.0194,0.4939 0.0387,0.9877 0.029,0.4938 0.0484,0.9876 v 3.2534 h -1.30716 v -6.9134 h 1.84939 l 3.00162,5.1802 h 0.0291 q -0.01,-0.4842 -0.0291,-0.9586 -0.0194,-0.4745 -0.0387,-0.9489 v -3.2727 h 1.31685 z m 5.65103,0 -0.50349,-1.6461 h -2.5175 l -0.50349,1.6461 h -1.57828 l 2.44003,-6.9425 h 1.79129 l 2.44972,6.9425 z m -1.35557,-4.4831 q -0.0484,-0.1646 -0.12587,-0.4164 -0.0775,-0.2517 -0.15493,-0.5131 -0.0775,-0.2615 -0.12587,-0.4551 -0.0484,0.1936 -0.13556,0.4841 -0.0775,0.2808 -0.15492,0.5422 -0.0678,0.2518 -0.10651,0.3583 l -0.49382,1.6073 h 1.80098 z m -0.41635,-1.7913 q -0.52287,0 -0.85208,-0.3002 -0.31953,-0.3001 -0.31953,-0.823 0,-0.5228 0.31953,-0.823 0.32921,-0.3002 0.85208,-0.3002 0.50349,0 0.85207,0.3002 0.34858,0.3002 0.34858,0.8133 0,0.5326 -0.34858,0.8327 -0.33889,0.3002 -0.85207,0.3002 z m 0,-0.6681 q 0.19365,0 0.31952,-0.1162 0.13556,-0.1259 0.13556,-0.3389 0,-0.213 -0.13556,-0.3292 -0.12587,-0.1259 -0.31952,-0.1259 -0.19366,0 -0.32921,0.1259 -0.12588,0.1162 -0.12588,0.3292 0,0.213 0.11619,0.3389 0.1162,0.1162 0.3389,0.1162 z m 6.32883,3.0597 h 2.74019 v 3.5826 q -0.54223,0.184 -1.13287,0.2905 -0.58096,0.1065 -1.32652,0.1065 -1.54923,0 -2.38194,-0.9102 -0.83271,-0.9101 -0.83271,-2.653 0,-1.0845 0.41636,-1.8785 0.42603,-0.7939 1.22969,-1.2297 0.80367,-0.4357 1.96558,-0.4357 0.55192,0 1.08446,0.1162 0.53255,0.1162 0.96827,0.3099 l -0.48413,1.1716 q -0.31953,-0.1646 -0.7262,-0.2711 -0.40668,-0.1066 -0.85208,-0.1066 -0.63905,0 -1.1135,0.2905 -0.46477,0.2905 -0.7262,0.8231 -0.25175,0.5228 -0.25175,1.2393 0,0.6778 0.18397,1.2007 0.18397,0.5228 0.58096,0.823 0.39699,0.2905 1.03604,0.2905 0.30985,0 0.52287,-0.029 0.2227,-0.029 0.40667,-0.068 v -1.4428 h -1.30716 z m 10.33746,0.4164 q 0,1.0748 -0.35826,1.8784 -0.34858,0.794 -1.07478,1.2394 -0.7262,0.4454 -1.85907,0.4454 -1.12319,0 -1.85907,-0.4454 -0.7262,-0.4454 -1.08446,-1.2491 -0.34857,-0.8036 -0.34857,-1.8784 0,-1.0748 0.34857,-1.8688 0.35826,-0.7939 1.08446,-1.2297 0.73588,-0.4454 1.86876,-0.4454 1.12318,0 1.84938,0.4454 0.7262,0.4358 1.07478,1.2394 0.35826,0.794 0.35826,1.8688 z m -5.04467,0 q 0,1.0844 0.41636,1.7138 0.41635,0.6197 1.3362,0.6197 0.93922,0 1.34589,-0.6197 0.40667,-0.6294 0.40667,-1.7138 0,-1.0942 -0.40667,-1.7138 -0.40667,-0.6197 -1.3362,-0.6197 -0.92954,0 -1.34589,0.6197 -0.41636,0.6196 -0.41636,1.7138 z m 12.28367,3.4664 h -1.85907 l -3.01131,-5.2287 h -0.0387 q 0.0194,0.4939 0.0387,0.9877 0.029,0.4938 0.0484,0.9876 v 3.2534 h -1.30716 v -6.9134 h 1.84939 l 3.00163,5.1802 h 0.029 q -0.01,-0.4842 -0.029,-0.9586 -0.0194,-0.4745 -0.0387,-0.9489 v -3.2727 h 1.31685 z m 7.15184,-3.5245 q 0,1.7525 -0.99731,2.6434 -0.98763,0.8811 -2.77892,0.8811 h -1.9559 v -6.9134 h 2.16891 q 1.08446,0 1.87844,0.3873 0.80366,0.3873 1.23938,1.1425 0.4454,0.7456 0.4454,1.8591 z m -1.52017,0.039 q 0,-1.1522 -0.5035,-1.6848 -0.5035,-0.5422 -1.46208,-0.5422 h -0.7843 v 4.5024 h 0.62937 q 2.12051,0 2.12051,-2.2754 z m 6.66771,3.4858 -0.50349,-1.6461 h -2.5175 l -0.50349,1.6461 h -1.57828 l 2.44003,-6.9425 h 1.79129 l 2.44972,6.9425 z m -1.35557,-4.4831 q -0.0484,-0.1646 -0.12587,-0.4164 -0.0775,-0.2517 -0.15493,-0.5131 -0.0775,-0.2615 -0.12587,-0.4551 -0.0484,0.1936 -0.13556,0.4841 -0.0775,0.2808 -0.15492,0.5422 -0.0678,0.2518 -0.10651,0.3583 l -0.49381,1.6073 h 1.80097 z m 5.91248,0.6003 h 2.74019 v 3.5826 q -0.54223,0.184 -1.13287,0.2905 -0.58096,0.1065 -1.32653,0.1065 -1.54922,0 -2.38193,-0.9102 -0.83271,-0.9101 -0.83271,-2.653 0,-1.0845 0.41635,-1.8785 0.42604,-0.7939 1.2297,-1.2297 0.80366,-0.4357 1.96558,-0.4357 0.55191,0 1.08446,0.1162 0.53255,0.1162 0.96827,0.3099 l -0.48414,1.1716 q -0.31953,-0.1646 -0.7262,-0.2711 -0.40667,-0.1066 -0.85207,-0.1066 -0.63906,0 -1.11351,0.2905 -0.46476,0.2905 -0.7262,0.8231 -0.25175,0.5228 -0.25175,1.2393 0,0.6778 0.18397,1.2007 0.18398,0.5228 0.58096,0.823 0.39699,0.2905 1.03605,0.2905 0.30984,0 0.52286,-0.029 0.2227,-0.029 0.40667,-0.068 v -1.4428 h -1.30715 z m 5.50581,3.8828 h -1.44272 v -6.9134 h 3.96021 v 1.2006 h -2.51749 v 1.7816 h 2.3432 v 1.2007 h -2.3432 z m 7.58757,0 -0.5035,-1.6461 h -2.51749 l -0.5035,1.6461 h -1.57827 l 2.44003,-6.9425 h 1.79129 l 2.44971,6.9425 z m -1.35557,-4.4831 q -0.0484,-0.1646 -0.12588,-0.4164 -0.0775,-0.2517 -0.15492,-0.5131 -0.0775,-0.2615 -0.12588,-0.4551 -0.0484,0.1936 -0.13555,0.4841 -0.0775,0.2808 -0.15493,0.5422 -0.0678,0.2518 -0.10651,0.3583 l -0.49381,1.6073 h 1.80097 z m -2.03336,-3.7859 q 0,-0.3389 0.19365,-0.4841 0.19365,-0.155 0.46477,-0.155 0.27111,0 0.46477,0.155 0.20333,0.1452 0.20333,0.4841 0,0.3195 -0.20333,0.4744 -0.19366,0.155 -0.46477,0.155 -0.27112,0 -0.46477,-0.155 -0.19365,-0.1549 -0.19365,-0.4744 z m 1.90748,0 q 0,-0.3389 0.19365,-0.4841 0.19366,-0.155 0.47445,-0.155 0.27112,0 0.46477,0.155 0.20334,0.1452 0.20334,0.4841 0,0.3195 -0.20334,0.4744 -0.19365,0.155 -0.46477,0.155 -0.28079,0 -0.47445,-0.155 -0.19365,-0.1549 -0.19365,-0.4744 z m 5.622,1.3556 q 1.41367,0 2.08177,0.5131 0.67779,0.5132 0.67779,1.5589 0,0.4745 -0.18397,0.8328 -0.17429,0.3485 -0.47445,0.6003 -0.29048,0.242 -0.62938,0.397 l 2.03336,3.0113 h -1.62669 l -1.64605,-2.6531 h -0.78429 v 2.6531 h -1.46208 v -6.9134 z m -0.10651,1.2006 h -0.4454 v 1.8688 h 0.47445 q 0.7262,0 1.03604,-0.2421 0.31953,-0.2421 0.31953,-0.7165 0,-0.4938 -0.33889,-0.6972 -0.32921,-0.213 -1.04573,-0.213 z m 9.89205,2.1883 q 0,1.7525 -0.99732,2.6434 -0.98763,0.8811 -2.77892,0.8811 h -1.9559 v -6.9134 h 2.16892 q 1.08446,0 1.87844,0.3873 0.80366,0.3873 1.23938,1.1425 0.4454,0.7456 0.4454,1.8591 z m -1.52018,0.039 q 0,-1.1522 -0.5035,-1.6848 -0.5035,-0.5422 -1.46208,-0.5422 h -0.7843 v 4.5024 h 0.62938 q 2.1205,0 2.1205,-2.2754 z m 2.63005,3.4858 v -6.9134 h 1.46209 v 6.9134 z m 5.5058,-3.8828 h 2.7402 v 3.5826 q -0.54223,0.184 -1.13288,0.2905 -0.58096,0.1065 -1.32652,0.1065 -1.54923,0 -2.38193,-0.9102 -0.83271,-0.9101 -0.83271,-2.653 0,-1.0845 0.41635,-1.8785 0.42604,-0.7939 1.2297,-1.2297 0.80366,-0.4357 1.96558,-0.4357 0.55191,0 1.08446,0.1162 0.53254,0.1162 0.96826,0.3099 l -0.48413,1.1716 q -0.31953,-0.1646 -0.7262,-0.2711 -0.40667,-0.1066 -0.85207,-0.1066 -0.63906,0 -1.11351,0.2905 -0.46477,0.2905 -0.7262,0.8231 -0.25175,0.5228 -0.25175,1.2393 0,0.6778 0.18397,1.2007 0.18397,0.5228 0.58096,0.823 0.39699,0.2905 1.03605,0.2905 0.30984,0 0.52286,-0.029 0.2227,-0.029 0.40667,-0.068 v -1.4428 h -1.30716 z m 6.72583,3.8828 h -1.46208 v -5.6934 h -1.87844 v -1.22 h 5.21895 v 1.22 h -1.87843 z"
         id="path6" /><path
         style="fill:#000000;fill-opacity:1;stroke:none"
         d="m -790.21944,1150.1286 q 1.33621,0 1.94622,0.581 0.61969,0.5713 0.61969,1.5782 0,0.6004 -0.25175,1.1329 -0.25175,0.5229 -0.84239,0.8424 -0.58096,0.3195 -1.58796,0.3195 h -0.62937 v 2.4594 h -1.46208 v -6.9134 z m -0.0775,1.2007 h -0.6681 v 2.0527 h 0.48413 q 0.61969,0 0.97795,-0.2421 0.36794,-0.2517 0.36794,-0.8036 0,-1.007 -1.16192,-1.007 z m 5.64137,-1.2007 q 1.41366,0 2.08177,0.5132 0.67778,0.5132 0.67778,1.5589 0,0.4745 -0.18397,0.8327 -0.17429,0.3486 -0.47445,0.6003 -0.29048,0.2421 -0.62937,0.397 l 2.03336,3.0113 h -1.62669 l -1.64605,-2.653 h -0.7843 v 2.653 h -1.46208 v -6.9134 z m -0.10651,1.2007 h -0.44541 v 1.8687 h 0.47445 q 0.7262,0 1.03605,-0.242 0.31953,-0.2421 0.31953,-0.7166 0,-0.4938 -0.3389,-0.6971 -0.32921,-0.213 -1.04572,-0.213 z m 10.43427,2.2463 q 0,1.0748 -0.35826,1.8785 -0.34857,0.794 -1.07477,1.2394 -0.7262,0.4454 -1.85907,0.4454 -1.12319,0 -1.85907,-0.4454 -0.7262,-0.4454 -1.08446,-1.2491 -0.34858,-0.8037 -0.34858,-1.8784 0,-1.0748 0.34858,-1.8688 0.35826,-0.794 1.08446,-1.2297 0.73588,-0.4454 1.86875,-0.4454 1.12319,0 1.84939,0.4454 0.7262,0.4357 1.07477,1.2394 0.35826,0.794 0.35826,1.8687 z m -5.04466,0 q 0,1.0845 0.41635,1.7139 0.41636,0.6197 1.33621,0.6197 0.93922,0 1.34589,-0.6197 0.40667,-0.6294 0.40667,-1.7139 0,-1.0941 -0.40667,-1.7138 -0.40667,-0.6197 -1.33621,-0.6197 -0.92953,0 -1.34589,0.6197 -0.41635,0.6197 -0.41635,1.7138 z m 8.77853,-0.4163 h 2.7402 v 3.5826 q -0.54223,0.1839 -1.13287,0.2905 -0.58096,0.1065 -1.32653,0.1065 -1.54922,0 -2.38193,-0.9102 -0.83271,-0.9102 -0.83271,-2.6531 0,-1.0844 0.41635,-1.8784 0.42604,-0.794 1.2297,-1.2297 0.80366,-0.4357 1.96558,-0.4357 0.55191,0 1.08446,0.1162 0.53254,0.1162 0.96826,0.3098 l -0.48413,1.1716 q -0.31953,-0.1646 -0.7262,-0.2711 -0.40667,-0.1065 -0.85207,-0.1065 -0.63906,0 -1.11351,0.2905 -0.46477,0.2905 -0.7262,0.823 -0.25175,0.5229 -0.25175,1.2394 0,0.6778 0.18397,1.2006 0.18397,0.5229 0.58096,0.8231 0.39699,0.2904 1.03605,0.2904 0.30984,0 0.52286,-0.029 0.2227,-0.029 0.40667,-0.068 v -1.4427 h -1.30716 z m 6.07709,-3.0307 q 1.41367,0 2.08178,0.5132 0.67778,0.5132 0.67778,1.5589 0,0.4745 -0.18397,0.8327 -0.17429,0.3486 -0.47445,0.6003 -0.29048,0.2421 -0.62937,0.397 l 2.03336,3.0113 h -1.62669 l -1.64605,-2.653 h -0.7843 v 2.653 h -1.46208 v -6.9134 z m -0.10651,1.2007 h -0.4454 v 1.8687 h 0.47445 q 0.7262,0 1.03605,-0.242 0.31952,-0.2421 0.31952,-0.7166 0,-0.4938 -0.33889,-0.6971 -0.32921,-0.213 -1.04573,-0.213 z m 8.39124,5.7127 -0.5035,-1.646 h -2.51749 l -0.5035,1.646 h -1.57827 l 2.44003,-6.9424 h 1.79129 l 2.44971,6.9424 z m -1.35557,-4.483 q -0.0484,-0.1646 -0.12588,-0.4164 -0.0775,-0.2517 -0.15492,-0.5132 -0.0775,-0.2614 -0.12587,-0.4551 -0.0484,0.1937 -0.13556,0.4842 -0.0775,0.2808 -0.15492,0.5422 -0.0678,0.2518 -0.10651,0.3583 l -0.49382,1.6073 h 1.80098 z m 6.40629,4.483 -1.66541,-5.4223 h -0.0387 q 0.01,0.1937 0.029,0.581 0.0194,0.3873 0.0387,0.8327 0.0194,0.4357 0.0194,0.794 v 3.2146 h -1.30716 v -6.9134 h 1.99463 l 1.63637,5.2867 h 0.029 l 1.73319,-5.2867 h 1.99463 v 6.9134 h -1.36526 v -3.2727 q 0,-0.3292 0.01,-0.7553 0.0194,-0.426 0.029,-0.8036 0.0194,-0.3873 0.029,-0.581 h -0.0387 l -1.78161,5.4126 z m 8.8076,0 -1.66542,-5.4223 h -0.0387 q 0.01,0.1937 0.029,0.581 0.0194,0.3873 0.0387,0.8327 0.0194,0.4357 0.0194,0.794 v 3.2146 h -1.30716 v -6.9134 h 1.99463 l 1.63637,5.2867 h 0.029 l 1.7332,-5.2867 h 1.99463 v 6.9134 h -1.36526 v -3.2727 q 0,-0.3292 0.01,-0.7553 0.0194,-0.426 0.029,-0.8036 0.0194,-0.3873 0.029,-0.581 h -0.0387 l -1.78161,5.4126 z m 9.86301,0 h -3.97957 v -6.9134 h 3.97957 v 1.2007 h -2.51749 v 1.5201 h 2.3432 v 1.2007 h -2.3432 v 1.7816 h 2.51749 z m 3.13354,-6.9134 q 1.41367,0 2.08178,0.5132 0.67778,0.5132 0.67778,1.5589 0,0.4745 -0.18397,0.8327 -0.17429,0.3486 -0.47445,0.6003 -0.29048,0.2421 -0.62937,0.397 l 2.03336,3.0113 h -1.62669 l -1.64605,-2.653 h -0.7843 v 2.653 h -1.46208 v -6.9134 z m -0.1065,1.2007 h -0.44541 v 1.8687 h 0.47445 q 0.7262,0 1.03605,-0.242 0.31953,-0.2421 0.31953,-0.7166 0,-0.4938 -0.3389,-0.6971 -0.32921,-0.213 -1.04572,-0.213 z m 4.15991,5.7127 v -6.9134 h 1.46208 v 6.9134 z m 9.01092,0 h -1.85907 l -3.01131,-5.2286 h -0.0387 q 0.0194,0.4938 0.0387,0.9876 0.029,0.4938 0.0484,0.9877 v 3.2533 h -1.30716 v -6.9134 h 1.84939 l 3.00163,5.1802 h 0.029 q -0.01,-0.4841 -0.029,-0.9585 -0.0194,-0.4745 -0.0387,-0.9489 v -3.2728 h 1.31684 z m 4.04372,-3.8827 h 2.74019 v 3.5826 q -0.54223,0.1839 -1.13287,0.2905 -0.58096,0.1065 -1.32653,0.1065 -1.54922,0 -2.38193,-0.9102 -0.83271,-0.9102 -0.83271,-2.6531 0,-1.0844 0.41636,-1.8784 0.42603,-0.794 1.22969,-1.2297 0.80366,-0.4357 1.96558,-0.4357 0.55192,0 1.08446,0.1162 0.53255,0.1162 0.96827,0.3098 l -0.48414,1.1716 q -0.31952,-0.1646 -0.72619,-0.2711 -0.40668,-0.1065 -0.85208,-0.1065 -0.63905,0 -1.1135,0.2905 -0.46477,0.2905 -0.7262,0.823 -0.25175,0.5229 -0.25175,1.2394 0,0.6778 0.18397,1.2006 0.18397,0.5229 0.58096,0.8231 0.39699,0.2904 1.03604,0.2904 0.30985,0 0.52287,-0.029 0.2227,-0.029 0.40667,-0.068 v -1.4427 h -1.30716 z m 8.13949,1.9656 q 0,0.9198 -0.6681,1.4717 -0.65842,0.5423 -1.87844,0.5423 -1.09414,0 -1.95589,-0.4164 v -1.3652 q 0.49381,0.213 1.01667,0.3969 0.53255,0.1743 1.05541,0.1743 0.54223,0 0.76493,-0.2033 0.23239,-0.213 0.23239,-0.5326 0,-0.2614 -0.18397,-0.4454 -0.17429,-0.1839 -0.47445,-0.3388 -0.30016,-0.1647 -0.68747,-0.3486 -0.24207,-0.1162 -0.52286,-0.2711 -0.2808,-0.1646 -0.54223,-0.397 -0.25175,-0.2421 -0.41636,-0.581 -0.1646,-0.3389 -0.1646,-0.8133 0,-0.9296 0.62937,-1.4427 0.62937,-0.5229 1.71383,-0.5229 0.54223,0 1.02636,0.1259 0.49382,0.1258 1.02636,0.3582 l -0.47445,1.1426 q -0.47445,-0.1937 -0.85207,-0.3002 -0.37762,-0.1065 -0.77461,-0.1065 -0.41636,0 -0.63906,0.1937 -0.2227,0.1936 -0.2227,0.5035 0,0.3679 0.32921,0.5809 0.32921,0.213 0.97795,0.5229 0.53255,0.2517 0.90049,0.5228 0.37762,0.2712 0.58096,0.6391 0.20333,0.3679 0.20333,0.9102 z m 3.14324,-4.9963 q 1.33621,0 1.94622,0.581 0.61969,0.5713 0.61969,1.5782 0,0.6004 -0.25175,1.1329 -0.25175,0.5229 -0.84239,0.8424 -0.58096,0.3195 -1.58796,0.3195 h -0.62937 v 2.4594 h -1.46208 v -6.9134 z m -0.0775,1.2007 h -0.6681 v 2.0527 h 0.48413 q 0.61969,0 0.97795,-0.2421 0.36794,-0.2517 0.36794,-0.8036 0,-1.007 -1.16192,-1.007 z m 5.64137,-1.2007 q 1.41367,0 2.08177,0.5132 0.67779,0.5132 0.67779,1.5589 0,0.4745 -0.18397,0.8327 -0.17429,0.3486 -0.47445,0.6003 -0.29048,0.2421 -0.62938,0.397 l 2.03336,3.0113 h -1.62668 l -1.64606,-2.653 h -0.78429 v 2.653 h -1.46208 v -6.9134 z m -0.10651,1.2007 h -0.4454 v 1.8687 h 0.47445 q 0.7262,0 1.03604,-0.242 0.31953,-0.2421 0.31953,-0.7166 0,-0.4938 -0.33889,-0.6971 -0.32921,-0.213 -1.04573,-0.213 z m 10.43427,2.2463 q 0,1.0748 -0.35826,1.8785 -0.34857,0.794 -1.07477,1.2394 -0.7262,0.4454 -1.85907,0.4454 -1.12319,0 -1.85907,-0.4454 -0.7262,-0.4454 -1.08446,-1.2491 -0.34858,-0.8037 -0.34858,-1.8784 0,-1.0748 0.34858,-1.8688 0.35826,-0.794 1.08446,-1.2297 0.73588,-0.4454 1.86875,-0.4454 1.12319,0 1.84939,0.4454 0.7262,0.4357 1.07477,1.2394 0.35826,0.794 0.35826,1.8687 z m -5.04467,0 q 0,1.0845 0.41636,1.7139 0.41635,0.6197 1.33621,0.6197 0.93921,0 1.34589,-0.6197 0.40667,-0.6294 0.40667,-1.7139 0,-1.0941 -0.40667,-1.7138 -0.40668,-0.6197 -1.33621,-0.6197 -0.92954,0 -1.34589,0.6197 -0.41636,0.6197 -0.41636,1.7138 z m 6.68709,3.5729 q -0.36794,0 -0.64874,-0.048 -0.28079,-0.048 -0.48413,-0.1162 v -1.2393 q 0.21302,0.068 0.4454,0.1258 0.24207,0.048 0.51318,0.048 0.26144,0 0.46477,-0.097 0.20334,-0.097 0.31953,-0.3679 0.11619,-0.2711 0.11619,-0.7746 v -4.5509 h 1.46208 v 4.5412 q 0,0.8908 -0.28079,1.4427 -0.27112,0.5422 -0.76493,0.794 -0.49382,0.242 -1.14256,0.242 z m 7.53915,-0.1065 h -3.97957 v -6.9134 h 3.97957 v 1.2007 h -2.51749 v 1.5201 h 2.34321 v 1.2007 h -2.34321 v 1.7816 h 2.51749 z m 6.67741,0 h -1.66542 l -1.81066,-2.9144 -0.61969,0.4454 v 2.469 h -1.46208 v -6.9134 h 1.46208 v 3.1662 q 0.14524,-0.2033 0.29048,-0.4066 0.14524,-0.2034 0.29048,-0.4067 l 1.86875,-2.3529 h 1.62669 l -2.41098,3.0597 z m 3.21101,0 h -1.46209 v -5.6934 h -1.87843 v -1.22 h 5.21895 v 1.22 h -1.87843 z"
         id="path7" /></g></g></svg>
