<?xml version="1.0" encoding="UTF-8" standalone="no"?>
<!-- Created with Inkscape (http://www.inkscape.org/) -->

<svg
   width="92.604164mm"
   height="57.230694mm"
   viewBox="0 0 92.604164 57.230694"
   version="1.1"
   id="svg1"
   xml:space="preserve"
   xmlns="http://www.w3.org/2000/svg"
   xmlns:svg="http://www.w3.org/2000/svg"><defs
     id="defs1" /><g
     id="layer1"
     transform="translate(379.06983,-174.55534)"><rect
       style="fill:#ffffff;fill-opacity:1;stroke-width:0.204147;stroke-linecap:round;stroke-linejoin:round;stroke-miterlimit:21.4;paint-order:markers fill stroke"
       id="rect1-50-9-3-5-9-3-1-8"
       width="92.604164"
       height="57.230698"
       x="-379.06982"
       y="174.55533" /><path
       style="fill:none;fill-opacity:1;stroke:#010101;stroke-width:0.529167;stroke-linecap:round;stroke-linejoin:round;stroke-miterlimit:12.7;stroke-dasharray:none;stroke-opacity:1;paint-order:markers fill stroke"
       d="m -345.79918,194.64467 c 5.08,-0.34959 6.26703,0.35571 6.28816,-0.87313 0.0134,-0.77725 -1.98628,-1.90275 -5.72438,-5.93063"
       id="path11-9-9-5-3" /><path
       style="fill:none;fill-opacity:1;stroke:#010101;stroke-width:0.529167;stroke-linecap:round;stroke-linejoin:round;stroke-miterlimit:12.7;stroke-dasharray:none;stroke-opacity:1;paint-order:markers fill stroke"
       d="m -345.89932,199.59615 c 1.94574,-0.5579 6.61968,-1.16216 9.15839,-2.53582 1.32815,-0.71865 1.83117,-1.84849 1.57048,-2.86153 -0.78932,-3.06732 -7.62453,-8.69219 -7.62453,-8.69219"
       id="path12-9-0-4-0" /><path
       style="fill:#ffffff;fill-opacity:1;stroke:none;stroke-width:0.657014;stroke-linecap:round;stroke-linejoin:round;stroke-miterlimit:12.7;stroke-dasharray:none;stroke-opacity:1;paint-order:markers fill stroke"
       d="m -342.14793,184.14984 2.81231,0.17782 0.79919,3.91263 -2.35492,0.3596 -0.28091,3.89071 -4.52387,-4.00501 -0.48365,-3.66523 z"
       id="path14-9-1-1-6-9" /><path
       style="font-weight:bold;font-size:12.7px;line-height:1;font-family:'Noto IKEA Latin';-inkscape-font-specification:'Noto IKEA Latin Bold';letter-spacing:-0.0926042px;word-spacing:0px;stroke-width:1.05833;stroke-linecap:round;stroke-linejoin:round;stroke-miterlimit:3.1;paint-order:stroke fill markers"
       d="m -374.61147,187.94261 v -1.3335 l 2.2733,-2.2987 q 0.6858,-0.7112 1.1049,-1.1811 0.4191,-0.4826 0.6096,-0.8636 0.1905,-0.3937 0.1905,-0.8382 0,-0.5461 -0.3048,-0.8128 -0.2921,-0.2667 -0.8001,-0.2667 -0.5207,0 -1.016,0.2413 -0.4953,0.2413 -1.0414,0.6858 l -1.0414,-1.2319 q 0.3937,-0.3429 0.8255,-0.635 0.4445,-0.2921 1.016,-0.4699 0.5842,-0.1905 1.397,-0.1905 0.889,0 1.524,0.3302 0.6477,0.3175 0.9906,0.8763 0.3556,0.5461 0.3556,1.2446 0,0.7493 -0.3048,1.3716 -0.2921,0.6223 -0.8636,1.2319 -0.5588,0.6096 -1.3589,1.3462 l -1.1684,1.0922 v 0.0889 h 3.9497 v 1.6129 z"
       id="text2-5-8-0"
       aria-label="2" /><path
       style="fill:none;stroke:#010101;stroke-width:0.529167;stroke-linecap:round;stroke-linejoin:round;stroke-miterlimit:12.7;stroke-dasharray:none;stroke-opacity:1;paint-order:stroke fill markers"
       d="m -342.81309,213.98945 2.16399,10.27893 -1.93857,1e-5 -1.98365,-10.23384"
       id="path1-5-0-0-5-6" /><path
       style="fill:none;stroke:#010101;stroke-width:0.529167;stroke-linecap:round;stroke-linejoin:round;stroke-miterlimit:12.7;stroke-dasharray:none;stroke-opacity:1;paint-order:stroke fill markers"
       d="m -351.59149,213.98225 -2.16399,10.27893 1.93857,1e-5 1.98365,-10.23384"
       id="path1-2-6-5-8" /><path
       style="fill:none;stroke:#010101;stroke-width:0.529167;stroke-linecap:round;stroke-linejoin:round;stroke-miterlimit:12.7;stroke-dasharray:none;stroke-opacity:1;paint-order:stroke fill markers"
       d="m -341.51249,213.84309 h -11.55592 l 0.0423,-2.04922 2.45448,0.009 9.03806,0.0333 c 0,0 0.6067,1.98606 0.0211,2.00697 z"
       id="path2-3-2-8-3" /><path
       style="fill:#ffffff;fill-opacity:1;stroke:#010101;stroke-width:0.529167;stroke-linecap:round;stroke-linejoin:round;stroke-miterlimit:12.7;stroke-dasharray:none;stroke-opacity:1;paint-order:markers fill stroke"
       d="m -349.53911,211.80667 8.00549,0.0295 c 0.68856,3.95917 -0.73998,8.37677 -1.61784,12.46973 l 10.68381,-0.0558 -3.17483,-4.2545 2.04011,-6.21983 c 3.14519,-7.76598 -6.51672,-9.11542 -11.64353,-8.75753"
       id="path3-9-2-5-8" /><path
       style="fill:#ffffff;fill-opacity:1;stroke:#010101;stroke-width:0.529167;stroke-linecap:round;stroke-linejoin:round;stroke-miterlimit:12.7;stroke-dasharray:none;stroke-opacity:1;paint-order:markers fill stroke"
       d="m -349.60528,211.82975 c 0,0 -7.78741,-5.05499 0.72865,-19.30913"
       id="path4-9-5-6-6" /><path
       style="fill:#ffffff;fill-opacity:1;stroke:none;stroke-width:0.657014;stroke-linecap:round;stroke-linejoin:round;stroke-miterlimit:12.7;stroke-dasharray:none;stroke-opacity:1;paint-order:markers fill stroke"
       d="m -343.86075,192.92553 2.81231,1.44839 0.32603,3.59719 0.48404,3.55344 -5.28852,0.42086 -2.36571,-7.07879 z"
       id="path14-9-1-1-1" /><path
       style="fill:#ffffff;fill-opacity:1;stroke:none;stroke-width:0.657014;stroke-linecap:round;stroke-linejoin:round;stroke-miterlimit:12.7;stroke-dasharray:none;stroke-opacity:1;paint-order:markers fill stroke"
       d="m -344.17665,201.09876 0.32603,3.59719 0.48404,3.55344 -3.09639,-2.44578 z"
       id="path14-9-1-1-4-9" /><path
       style="fill:#ffffff;fill-opacity:1;stroke:none;stroke-width:0.657014;stroke-linecap:round;stroke-linejoin:round;stroke-miterlimit:12.7;stroke-dasharray:none;stroke-opacity:1;paint-order:markers fill stroke"
       d="m -348.00658,206.89971 2.85541,4.38411 -3.22572,4.11552 c 0,0 -1.35114,-0.52062 -1.25074,-1.06333 0.10039,-0.54271 0.18501,-0.76273 -0.49964,-0.75761 -0.68465,0.005 -0.36445,-1.21735 -0.36445,-1.21735 z"
       id="path14-9-1-1-4-7-6" /><path
       style="fill:none;fill-opacity:1;stroke:#010101;stroke-width:0.529167;stroke-linecap:round;stroke-linejoin:round;stroke-miterlimit:12.7;stroke-dasharray:none;stroke-opacity:1;paint-order:markers fill stroke"
       d="m -316.76437,204.99959 v 19.25068 h -1.70812 v -17.0107 h -11.20728 v 17.0107 h -1.7365 v -19.24376"
       id="path18-7-1-6-7" /><path
       style="fill:none;fill-opacity:1;stroke:#010101;stroke-width:0.529167;stroke-linecap:round;stroke-linejoin:round;stroke-miterlimit:12.7;stroke-dasharray:none;stroke-opacity:1;paint-order:markers fill stroke"
       d="m -333.93897,204.87185 v -1.64952 h 19.59229 v 1.64954 z"
       id="path19-6-0-1-8" /><path
       style="fill:none;fill-opacity:1;stroke:#010101;stroke-width:0.529167;stroke-linecap:round;stroke-linejoin:round;stroke-miterlimit:12.7;stroke-dasharray:none;stroke-opacity:1;paint-order:markers fill stroke"
       d="m -318.47242,201.78212 1.81385,-9.49884 h -0.9098 l -1.78998,9.45111"
       id="path20-2-1-2-9" /><path
       style="fill:none;fill-opacity:1;stroke:#010101;stroke-width:0.529167;stroke-linecap:round;stroke-linejoin:round;stroke-miterlimit:12.7;stroke-dasharray:none;stroke-opacity:1;paint-order:markers fill stroke"
       d="m -329.23618,203.22233 v -1.20003 h 10.73989 v 1.20003"
       id="path21-7-8-0-75" /><path
       style="fill:none;fill-opacity:1;stroke:#010101;stroke-width:0.529167;stroke-linecap:round;stroke-linejoin:round;stroke-miterlimit:12.7;stroke-dasharray:none;stroke-opacity:1;paint-order:markers fill stroke"
       d="m -348.87663,192.52062 c 0,0 -2.00075,-8.11115 2.19021,-9.2658 4.19096,-1.15466 7.99566,3.95541 7.99566,3.95541 0,0 0.79638,1.21206 -0.68286,1.2619 l -1.65284,0.0557 -0.14329,4.34908 c 0,0 1.69095,10.32436 1.0593,12.36807"
       id="path5-7-2-7-5" /><circle
       style="fill:#000000;fill-opacity:1;stroke:none;stroke-width:1.92344;stroke-linecap:round;stroke-linejoin:round;stroke-miterlimit:12.7;stroke-dasharray:none;stroke-opacity:1;paint-order:markers fill stroke"
       id="path6-0-2-9-2"
       cx="-342.68402"
       cy="187.27995"
       r="0.50062227" /><path
       style="fill:none;fill-opacity:1;stroke:#010101;stroke-width:0.529167;stroke-linecap:round;stroke-linejoin:round;stroke-miterlimit:12.7;stroke-dasharray:none;stroke-opacity:1;paint-order:markers fill stroke"
       d="m -341.15678,191.23447 c 0,0 -0.33405,-0.83993 -1.3107,-0.84147 -0.72433,-0.001 -0.586,1.11557 -1.28931,0.8118 -0.31204,-0.13477 -0.39911,-0.37239 -1.03314,-0.91742 -0.25365,-0.21804 -0.54554,-0.19226 -0.80306,-0.0809 -0.39011,0.16874 -0.70135,0.53395 -0.68122,0.54552"
       id="path7-3-7-4-4" /><path
       style="fill:none;fill-opacity:1;stroke:#010101;stroke-width:0.529167;stroke-linecap:round;stroke-linejoin:round;stroke-miterlimit:12.7;stroke-dasharray:none;stroke-opacity:1;paint-order:markers fill stroke"
       d="m -347.80161,196.89976 c 0,0 0.64556,2.48331 -0.0924,8.8094 -0.31827,2.7283 -2.4666,6.09005 -2.4666,6.09005"
       id="path12-9-0-1-9" /><path
       style="fill:none;fill-opacity:1;stroke:#010101;stroke-width:0.529167;stroke-linecap:round;stroke-linejoin:round;stroke-miterlimit:12.7;stroke-dasharray:none;stroke-opacity:1;paint-order:markers fill stroke"
       d="m -347.65071,210.81572 c 0,0 -0.69866,1.40905 -1.80687,2.3374"
       id="path13-9-0-4-4" /><path
       style="fill:none;fill-opacity:1;stroke:#010101;stroke-width:0.529167;stroke-linecap:round;stroke-linejoin:round;stroke-miterlimit:12.7;stroke-dasharray:none;stroke-opacity:1;paint-order:markers fill stroke"
       d="m -343.7115,197.09947 c -0.91431,2.84736 2.70645,12.19873 -5.08032,18.39933"
       id="path11-9-9-9-4" /><circle
       style="fill:none;fill-opacity:1;stroke:#010101;stroke-width:0.529167;stroke-linecap:round;stroke-linejoin:round;stroke-miterlimit:3.1;stroke-dasharray:none;stroke-opacity:1;paint-order:stroke fill markers"
       id="path30-6"
       cx="-321.23206"
       cy="192.66628"
       r="0.45498577" /><ellipse
       style="fill:none;fill-opacity:1;stroke:#010101;stroke-width:0.529167;stroke-linecap:round;stroke-linejoin:round;stroke-miterlimit:3.1;stroke-dasharray:none;stroke-opacity:1;paint-order:stroke fill markers"
       id="path31-0"
       cx="-321.18631"
       cy="188.87029"
       rx="0.90573078"
       ry="0.90581352" /><circle
       style="fill:none;fill-opacity:1;stroke:#010101;stroke-width:0.529167;stroke-linecap:round;stroke-linejoin:round;stroke-miterlimit:3.1;stroke-dasharray:none;stroke-opacity:1;paint-order:stroke fill markers"
       id="path32-3"
       cx="-314.55475"
       cy="183.42783"
       r="5.0308456" /><path
       style="fill:none;fill-opacity:1;stroke:#010101;stroke-width:0.529167;stroke-linecap:round;stroke-linejoin:round;stroke-miterlimit:3.1;stroke-dasharray:none;stroke-opacity:1;paint-order:stroke fill markers"
       d="m -315.91368,185.04962 2.75415,-3.24359"
       id="path33-2" /><path
       style="fill:none;fill-opacity:1;stroke:#010101;stroke-width:0.529167;stroke-linecap:round;stroke-linejoin:round;stroke-miterlimit:3.1;stroke-dasharray:none;stroke-opacity:1;paint-order:stroke fill markers"
       d="m -316.02888,181.93922 2.94828,3.05281"
       id="path34-2" /></g></svg>
