<?xml version="1.0" encoding="UTF-8" standalone="no"?>
<!-- Created with Inkscape (http://www.inkscape.org/) -->

<svg
   width="92.604164mm"
   height="57.230694mm"
   viewBox="0 0 92.604164 57.230694"
   version="1.1"
   id="svg1"
   xml:space="preserve"
   xmlns="http://www.w3.org/2000/svg"
   xmlns:svg="http://www.w3.org/2000/svg"><defs
     id="defs1" /><g
     id="layer1"
     transform="translate(379.06983,-231.78603)"><rect
       style="fill:#ffffff;fill-opacity:1;stroke-width:0.204147;stroke-linecap:round;stroke-linejoin:round;stroke-miterlimit:21.4;paint-order:markers fill stroke"
       id="rect1-50-9-3-5-9-3-1-7-7"
       width="92.604164"
       height="57.230698"
       x="-379.06982"
       y="231.78603" /><path
       style="font-weight:bold;font-size:12.7px;line-height:1;font-family:'Noto IKEA Latin';-inkscape-font-specification:'Noto IKEA Latin Bold';letter-spacing:-0.0926042px;word-spacing:0px;stroke-width:1.05833;stroke-linecap:round;stroke-linejoin:round;stroke-miterlimit:3.1;paint-order:stroke fill markers"
       d="m -368.56627,238.13751 q 0,0.9398 -0.5715,1.4986 -0.5588,0.5588 -1.3843,0.762 v 0.0381 q 1.0922,0.127 1.651,0.6604 0.5715,0.5334 0.5715,1.4351 0,0.7874 -0.3937,1.4224 -0.381,0.6223 -1.1938,0.9906 -0.8001,0.3556 -2.0701,0.3556 -1.4732,0 -2.6162,-0.4953 v -1.6256 q 0.5842,0.2921 1.2192,0.4445 0.6477,0.1524 1.1938,0.1524 1.0287,0 1.4351,-0.3556 0.4191,-0.3556 0.4191,-1.0033 0,-0.381 -0.1905,-0.635 -0.1905,-0.2667 -0.6731,-0.3937 -0.4699,-0.1397 -1.3208,-0.1397 h -0.6858 v -1.4732 h 0.6985 q 0.8382,0 1.27,-0.1524 0.4445,-0.1651 0.5969,-0.4318 0.1651,-0.2794 0.1651,-0.635 0,-0.4826 -0.3048,-0.7493 -0.2921,-0.2794 -0.9906,-0.2794 -0.6477,0 -1.1303,0.2286 -0.4699,0.2159 -0.8001,0.4318 l -0.889,-1.3208 q 0.5334,-0.381 1.2446,-0.635 0.7239,-0.254 1.7145,-0.254 1.397,0 2.2098,0.5715 0.8255,0.5588 0.8255,1.5875 z"
       id="text2-5-8-6-9"
       aria-label="3" /><path
       style="fill:none;stroke:#010101;stroke-width:0.529167;stroke-linecap:round;stroke-linejoin:round;stroke-miterlimit:12.7;stroke-dasharray:none;stroke-opacity:1;paint-order:stroke fill markers"
       d="m -344.4006,271.22013 2.16399,10.27893 -1.93857,1e-5 -1.98365,-10.23384"
       id="path1-5-0-0-5-4-5" /><path
       style="fill:none;stroke:#010101;stroke-width:0.529167;stroke-linecap:round;stroke-linejoin:round;stroke-miterlimit:12.7;stroke-dasharray:none;stroke-opacity:1;paint-order:stroke fill markers"
       d="m -353.179,271.21293 -2.16399,10.27893 1.93857,1e-5 1.98365,-10.23384"
       id="path1-2-6-5-0-6" /><path
       style="fill:none;stroke:#010101;stroke-width:0.529167;stroke-linecap:round;stroke-linejoin:round;stroke-miterlimit:12.7;stroke-dasharray:none;stroke-opacity:1;paint-order:stroke fill markers"
       d="m -342.65983,271.07377 h -11.99609 l 0.0423,-2.04922 2.45448,0.009 9.47823,0.0333 z"
       id="path2-3-2-8-6-1" /><path
       style="fill:none;fill-opacity:1;stroke:#010101;stroke-width:0.529167;stroke-linecap:round;stroke-linejoin:round;stroke-miterlimit:12.7;stroke-dasharray:none;stroke-opacity:1;paint-order:markers fill stroke"
       d="m -316.76437,262.23027 v 19.25068 h -1.70812 v -17.0107 h -11.20728 v 17.0107 h -1.7365 v -19.24376"
       id="path18-7-1-6-8-5" /><path
       style="fill:none;fill-opacity:1;stroke:#010101;stroke-width:0.529167;stroke-linecap:round;stroke-linejoin:round;stroke-miterlimit:12.7;stroke-dasharray:none;stroke-opacity:1;paint-order:markers fill stroke"
       d="m -333.93897,262.10253 v -1.64952 h 19.59229 v 1.64954 z"
       id="path19-6-0-1-5-9" /><path
       style="fill:none;fill-opacity:1;stroke:#010101;stroke-width:0.529167;stroke-linecap:round;stroke-linejoin:round;stroke-miterlimit:12.7;stroke-dasharray:none;stroke-opacity:1;paint-order:markers fill stroke"
       d="m -318.47242,259.0128 1.81385,-9.49884 h -0.9098 l -1.78998,9.45111"
       id="path20-2-1-2-3-1" /><path
       style="fill:none;fill-opacity:1;stroke:#010101;stroke-width:0.529167;stroke-linecap:round;stroke-linejoin:round;stroke-miterlimit:12.7;stroke-dasharray:none;stroke-opacity:1;paint-order:markers fill stroke"
       d="m -329.23618,260.45301 v -1.20003 h 10.73989 v 1.20003"
       id="path21-7-8-0-7-3" /><path
       style="fill:none;fill-opacity:1;stroke:#010101;stroke-width:0.264583;stroke-linecap:round;stroke-linejoin:round;stroke-miterlimit:3.1;stroke-dasharray:none;stroke-opacity:1;paint-order:stroke fill markers"
       d="m -341.94811,248.45969 0.26773,-2.5434 c 0,0 0.4652,-0.12803 0.7246,-0.30986 0.1878,-0.13164 -0.26469,-0.68303 -0.86169,-1.13586 -0.65722,-0.4985 -1.52173,-0.87066 -2.64056,-0.27321 -1.14824,0.61316 -1.05861,2.64629 -0.17194,4.34397 0,0 -0.24443,0.27393 -0.28865,0.93413 -0.0442,0.6602 -0.4925,11.09528 -0.4925,11.09528 l 6.44147,-0.0299 -1.40557,-1.33863 c 0.49411,-3.20236 0.24487,-6.41724 0.1417,-9.63813 0,0 -1.01181,-1.07089 -1.71459,-1.10436 z"
       id="path8-8" /><circle
       style="fill:#000000;fill-opacity:1;stroke:none;stroke-width:0.264583;stroke-linecap:round;stroke-linejoin:round;stroke-miterlimit:3.1;stroke-dasharray:none;stroke-opacity:1;paint-order:stroke fill markers"
       id="path9-8"
       cx="-343.13794"
       cy="245.46115"
       r="0.21651332" /><circle
       style="fill:#000000;fill-opacity:1;stroke:none;stroke-width:0.264583;stroke-linecap:round;stroke-linejoin:round;stroke-miterlimit:3.1;stroke-dasharray:none;stroke-opacity:1;paint-order:stroke fill markers"
       id="path9-0-9"
       cx="-342.32806"
       cy="244.96353"
       r="0.21651332" /><path
       style="fill:none;fill-opacity:1;stroke:#010101;stroke-width:0.264583;stroke-linecap:round;stroke-linejoin:round;stroke-miterlimit:3.1;stroke-dasharray:none;stroke-opacity:1;paint-order:stroke fill markers"
       d="m -342.49437,256.31822 0.0936,4.21575"
       id="path10-4" /><path
       style="fill:none;fill-opacity:1;stroke:#010101;stroke-width:0.264583;stroke-linecap:round;stroke-linejoin:round;stroke-miterlimit:3.1;stroke-dasharray:none;stroke-opacity:1;paint-order:stroke fill markers"
       d="m -341.84315,246.55952 c 0,0 -0.97578,-0.46977 -1.38133,0.62968"
       id="path15-3" /><path
       style="fill:#ffffff;fill-opacity:1;stroke:none;stroke-width:0.264583;stroke-linecap:round;stroke-linejoin:round;stroke-miterlimit:12.7;stroke-dasharray:none;stroke-opacity:1;paint-order:markers fill stroke"
       d="m -344.96897,248.81898 3.78349,-0.003 1.50784,0.66278 -0.26602,1.38282 -4.86975,-0.15992 -0.39396,-0.15234 z"
       id="path14-9-1-1-4-7-1-9" /><path
       style="fill:none;fill-opacity:1;stroke:#010101;stroke-width:0.264583;stroke-linecap:round;stroke-linejoin:round;stroke-miterlimit:3.1;stroke-dasharray:none;stroke-opacity:1;paint-order:stroke fill markers"
       d="m -344.77156,248.7971 c 0,0 -1.71784,0.89249 -2.91546,0.73978 -1.06662,-0.136 -0.98967,-0.83143 -2.36946,-2.64622"
       id="path24-5" /><path
       style="fill:none;fill-opacity:1;stroke:#010101;stroke-width:0.264583;stroke-linecap:round;stroke-linejoin:round;stroke-miterlimit:3.1;stroke-dasharray:none;stroke-opacity:1;paint-order:stroke fill markers"
       d="m -351.60704,247.15613 c 1.2654,1.30197 1.63547,3.64713 3.64632,4.02382 0.88205,0.16524 2.76708,-0.47496 2.9932,-0.54546"
       id="path25-1" /><path
       style="fill:none;fill-opacity:1;stroke:#010101;stroke-width:0.264583;stroke-linecap:round;stroke-linejoin:round;stroke-miterlimit:3.1;stroke-dasharray:none;stroke-opacity:1;paint-order:stroke fill markers"
       d="m -334.55933,246.39717 c -0.39616,0.94767 -0.71951,1.65573 -1.26758,2.4922 -0.52669,0.80384 -1.17153,1.46008 -1.78027,1.66635 -0.57356,0.19435 -1.35979,0.46758 -2.58988,0.31394"
       id="path26-7" /><path
       style="fill:none;fill-opacity:1;stroke:#010101;stroke-width:0.264583;stroke-linecap:round;stroke-linejoin:round;stroke-miterlimit:3.1;stroke-dasharray:none;stroke-opacity:1;paint-order:stroke fill markers"
       d="m -341.23754,248.73404 c 0,0 1.30457,0.6937 2.50218,0.54099 1.06664,-0.136 1.9556,-1.06453 2.55918,-3.02317"
       id="path24-9-4" /><path
       style="fill:none;fill-opacity:1;stroke:#010101;stroke-width:0.264583;stroke-linecap:round;stroke-linejoin:round;stroke-miterlimit:3.1;stroke-dasharray:none;stroke-opacity:1;paint-order:stroke fill markers"
       d="m -350.80714,246.99754 c 0,0 0.6033,0.72973 0.6033,0.91938"
       id="path27-5" /><path
       style="fill:none;fill-opacity:1;stroke:#010101;stroke-width:0.264583;stroke-linecap:round;stroke-linejoin:round;stroke-miterlimit:3.1;stroke-dasharray:none;stroke-opacity:1;paint-order:stroke fill markers"
       d="m -335.37841,246.28716 c 0,0 -0.10396,0.47382 -0.35796,1.00728"
       id="path28-1" /><path
       style="fill:none;fill-opacity:1;stroke:#010101;stroke-width:0.264583;stroke-linecap:round;stroke-linejoin:round;stroke-miterlimit:3.1;stroke-dasharray:none;stroke-opacity:1;paint-order:stroke fill markers"
       d="m -343.75284,245.1357 c 0.35748,-0.22723 0.81582,-0.35225 1.26465,-0.72184"
       id="path29-4" /></g></svg>
