<?xml version="1.0" encoding="UTF-8" standalone="no"?>
<!-- Created with Inkscape (http://www.inkscape.org/) -->

<svg
   width="350"
   height="216.30493"
   viewBox="0 0 92.604168 57.230678"
   version="1.1"
   id="svg1"
   xml:space="preserve"
   xmlns="http://www.w3.org/2000/svg"
   xmlns:svg="http://www.w3.org/2000/svg"><defs
     id="defs1" /><g
     id="layer1"
     transform="translate(1220.2485,-823.31418)"><rect
       style="fill:#ffffff;fill-opacity:1;stroke-width:0.204147;stroke-linecap:round;stroke-linejoin:round;stroke-miterlimit:21.4;paint-order:markers fill stroke"
       id="rect1-50-6-14-1-2"
       width="92.604164"
       height="57.230698"
       x="-1220.2485"
       y="823.31415" /><g
       style="fill:none"
       id="g2-1-2-3"
       transform="matrix(0.25159692,0,0,0.25159692,-1200.4615,842.57296)"><path
         fill="#e53238"
         d="M 44.2707,41.613 C 43.822,32.0423 36.9117,28.5397 29.5494,28.5813 21.6167,28.6247 15.2986,32.6828 14.2328,41.7831 Z m -30.2248,6.9569 c 0.6072,9.2621 7.0187,14.7013 15.8054,14.6529 6.0847,-0.035 11.4838,-2.5419 13.2635,-7.9444 L 53.6328,55.22 C 51.653,66.1751 40.0375,69.9546 30.0398,70.008 11.8393,70.1097 3.71972,60.1371 3.64467,46.6168 3.56127,31.7271 11.8459,21.8946 29.9397,21.7912 c 14.391,-0.0801 24.9825,7.3939 25.0742,23.8365 l 0.0167,2.7104 z"
         id="path1-1-0-8-6" /><path
         fill="#0064d2"
         d="M 81.2808,62.7457 C 90.7681,62.6923 97.198,55.8271 97.1396,45.5326 97.0812,35.238 90.5562,28.4429 81.0907,28.4962 71.6251,28.5496 65.1735,35.4148 65.2302,45.7094 65.287,56.0039 71.8586,62.7974 81.2808,62.7457 Z M 54.7739,3.70063 64.9751,3.64392 65.1168,29.2785 c 4.9671,-5.9846 11.8424,-7.7559 18.6259,-7.796 11.3704,-0.0617 24.0383,7.5358 24.1313,24.1084 0.076,13.8273 -9.9088,24.0301 -24.0546,24.1085 -7.444,0.0433 -14.3843,-2.577 -18.7109,-7.8077 0.0111,2.0787 -0.0947,4.1563 -0.3169,6.2231 l -9.9977,0.0567 c 0.1502,-3.1941 0.3086,-7.2789 0.2903,-10.5447 z"
         id="path2-5-4-3-5" /><path
         fill="#f5af02"
         d="m 132.55,46.5584 c -9.254,0.3602 -14.987,2.0498 -14.953,8.1445 0.021,3.9447 3.235,8.2046 11.175,8.1579 10.7,-0.0584 16.389,-5.9312 16.336,-15.4935 v -1.0625 c -3.757,0.0334 -8.405,0.0901 -12.558,0.2536 z m 22.822,12.5195 c 0.017,2.9656 0.119,5.9012 0.387,8.5065 l -9.487,0.0534 c -0.247,-2.1177 -0.373,-4.2478 -0.375,-6.3799 -5.091,6.3382 -11.189,8.1879 -19.654,8.2363 -12.563,0.07 -19.323,-6.53 -19.366,-14.2075 -0.062,-11.1168 9.063,-15.0932 24.942,-15.5419 4.337,-0.1201 9.222,-0.1668 13.252,-0.1935 v -1.0624 c -0.043,-7.4441 -4.837,-10.483 -13.1,-10.4363 -6.138,0.035 -10.622,2.6036 -11.097,7.0053 l -10.731,0.0584 c 1.075,-10.9517 12.559,-13.7922 22.675,-13.8439 12.115,-0.0667 22.361,4.1832 22.431,16.9996 z"
         id="path3-55-9-9-5" /><path
         fill="#86b817"
         d="m 156.997,36.7643 -7.506,-13.9473 11.933,-0.0668 17.661,34.8967 17.227,-35.0601 10.818,-0.0801 -31.202,62.1325 -11.425,0.065 8.977,-17.2598 -16.491,-30.6785"
         id="path4-8-0-9-8" /></g></g></svg>
