<?xml version="1.0" encoding="UTF-8" standalone="no"?>
<!-- Created with Inkscape (http://www.inkscape.org/) -->

<svg
   width="350"
   height="216.30518"
   viewBox="0 0 92.604168 57.230742"
   version="1.1"
   id="svg1"
   xml:space="preserve"
   xmlns="http://www.w3.org/2000/svg"
   xmlns:svg="http://www.w3.org/2000/svg"><defs
     id="defs1" /><g
     id="layer1"
     transform="translate(1220.2485,-880.54484)"><rect
       style="fill:#000000;fill-opacity:1;stroke-width:0.204147;stroke-linecap:round;stroke-linejoin:round;stroke-miterlimit:21.4;paint-order:markers fill stroke"
       id="rect1-50-6-14-1-2-6"
       width="92.604164"
       height="57.230698"
       x="-1220.2485"
       y="880.54486" /><path
       id="path1-1-0-8-6-3"
       style="fill:#000000;fill-opacity:1;stroke:#ffffff;stroke-width:1.05833;stroke-dasharray:none;stroke-opacity:1;paint-order:stroke fill markers"
       d="m -1184.1143,900.72021 -2.5662,0.0145 0.06,10.54871 0.018,3.01894 c 0,0.82166 -0.035,1.84944 -0.073,2.65307 l 2.5151,-0.0145 c 0.056,-0.52 0.08,-1.0428 0.08,-1.5658 1.0886,1.31603 2.8348,1.97564 4.7077,1.96474 3.559,-0.0197 6.0709,-2.58687 6.0519,-6.06578 -0.023,-4.16962 -3.2107,-6.08128 -6.0715,-6.06578 -1.7067,0.0101 -3.4363,0.45593 -4.686,1.96164 z m -2.5058,10.56318 c -0.023,-4.13691 -2.6878,-6.01715 -6.3086,-5.99705 -4.5523,0.026 -6.6367,2.49993 -6.6157,6.24613 0.019,3.40167 2.0613,5.91052 6.6405,5.88492 2.5154,-0.0134 5.4379,-0.96444 5.936,-3.72071 l -2.6463,0.015 c -0.4478,1.35925 -1.8059,1.98984 -3.3368,1.99884 -2.2107,0.0122 -3.8237,-1.35628 -3.9765,-3.68659 l 10.3074,-0.0584 z m 19.5751,-6.12779 c -2.5452,0.013 -5.4346,0.72758 -5.7051,3.48299 l 2.7001,-0.0145 c 0.1195,-1.10745 1.2477,-1.75369 2.792,-1.76269 2.0789,-0.0118 3.285,0.75277 3.296,2.62568 v 0.26769 c -1.0139,0.007 -2.2431,0.0184 -3.3342,0.0486 -3.9952,0.11289 -6.2916,1.11341 -6.2756,3.91036 0.011,1.93164 1.7118,3.59206 4.8726,3.57446 2.1298,-0.0122 3.6641,-0.47756 4.9449,-2.07223 0,0.53643 0.032,1.07227 0.094,1.60507 l 2.3869,-0.0134 c -0.067,-0.65549 -0.097,-1.39379 -0.097,-2.13992 l -0.031,-5.23482 c -0.018,-3.22457 -2.5954,-4.29406 -5.6435,-4.27726 z m 18.6965,0.31058 -2.7218,0.0201 -4.3341,8.82117 -4.4432,-8.77983 -3.0024,0.0165 1.8883,3.50935 v 5.1e-4 l 4.1491,7.7184 -2.2587,4.34237 2.8747,-0.016 z m -31.7107,1.50688 c 2.3815,-0.0134 4.0224,1.69647 4.0374,4.28656 0.015,2.59007 -1.6029,4.31709 -3.9899,4.33049 -2.3706,0.013 -4.024,-1.69598 -4.038,-4.28605 -0.014,-2.59009 1.609,-4.3176 3.9905,-4.331 z m -12.9677,0.0217 c 1.8524,-0.0105 3.5907,0.87039 3.7036,3.27835 l -7.5576,0.0429 c 0.2682,-2.28961 1.8582,-3.31034 3.854,-3.32124 z m 29.0742,4.45916 v 0.26716 c 0.013,2.40584 -1.4183,3.88326 -4.1104,3.89796 -1.9976,0.0118 -2.8017,-1.05959 -2.8117,-2.05207 -0.01,-1.53341 1.4343,-1.95889 3.7626,-2.04949 1.0449,-0.0411 2.2143,-0.0556 3.1595,-0.0636 z" /></g></svg>
