<?xml version="1.0" encoding="UTF-8" standalone="no"?>
<!-- Created with Inkscape (http://www.inkscape.org/) -->

<svg
   width="349.99976"
   height="216.30493"
   viewBox="0 0 92.604103 57.230678"
   version="1.1"
   id="svg1"
   xml:space="preserve"
   xmlns:xlink="http://www.w3.org/1999/xlink"
   xmlns="http://www.w3.org/2000/svg"
   xmlns:svg="http://www.w3.org/2000/svg"><defs
     id="defs1"><linearGradient
       id="a-6-0-51-4"
       x1="61.439129"
       x2="24.390926"
       y1="9.2819672"
       y2="79.81604"
       gradientTransform="scale(1.0736773,0.93137853)"
       gradientUnits="userSpaceOnUse"><stop
         offset="0%"
         stop-color="#F05379"
         id="stop1-2-9-2-8" /><stop
         offset="19.87%"
         stop-color="#F05379"
         id="stop2-2-5-4-3" /><stop
         offset="27.57%"
         stop-color="#F05379"
         id="stop3-5-6-6-5" /><stop
         offset="84.43%"
         stop-color="#F6A6BA"
         id="stop4-2-2-75-0" /><stop
         offset="100%"
         stop-color="#F6A6BA"
         id="stop5-2-8-50-0" /></linearGradient><linearGradient
       id="b-7-5-5-6"
       x1="31.047907"
       x2="15.421066"
       y1="23.556259"
       y2="13.639229"
       gradientTransform="scale(1.0808072,0.92523437)"
       gradientUnits="userSpaceOnUse"><stop
         offset="0%"
         stop-color="#99EDF1"
         stop-opacity=".4"
         id="stop6-1-9-2-70" /><stop
         offset="0%"
         stop-color="#85E9EE"
         stop-opacity=".48"
         id="stop7-5-4-0-7" /><stop
         offset="100%"
         stop-color="#00D2DC"
         id="stop8-2-3-7-3" /></linearGradient><linearGradient
       xlink:href="#a-6-0-51-4"
       id="linearGradient2"
       gradientUnits="userSpaceOnUse"
       gradientTransform="scale(1.0736773,0.93137853)"
       x1="61.439129"
       y1="9.2819672"
       x2="24.390926"
       y2="79.81604" /><linearGradient
       xlink:href="#b-7-5-5-6"
       id="linearGradient3"
       gradientUnits="userSpaceOnUse"
       gradientTransform="scale(1.0808072,0.92523437)"
       x1="31.047907"
       y1="23.556259"
       x2="15.421066"
       y2="13.639229" /></defs><g
     id="layer1"
     transform="translate(1127.6444,-823.31418)"><rect
       style="fill:#ffffff;fill-opacity:1;stroke-width:0.204147;stroke-linecap:round;stroke-linejoin:round;stroke-miterlimit:21.4;paint-order:markers fill stroke"
       id="rect1-50-6-9-4-3"
       width="92.604164"
       height="57.230698"
       x="-1127.6444"
       y="823.31415" /><g
       id="g10-0-6-7-2-0-8"
       transform="matrix(0.24768525,0,0,0.24768525,-1113.6415,842.72087)"><path
         fill="#00d2dc"
         d="M 244.75,63.99 V 5.09 c 0,-0.46 0.37,-0.84 0.82,-0.84 h 6 a 5.25,5.25 0 0 1 5.24,5.26 v 58.93 a 0.84,0.84 0 0 1 -0.83,0.83 h -6 a 5.25,5.25 0 0 1 -5.23,-5.26 M 143.15,41.88 v 26.08 a 1.3,1.3 0 0 1 -1.3,1.3 h -4.86 a 5.68,5.68 0 0 1 -5.68,-5.68 v -19.2 c 0,-6.3 -3.58,-10.54 -9.07,-10.54 -6.72,0 -11.13,4.52 -11.13,15.5 v 18.6 a 1.3,1.3 0 0 1 -1.3,1.31 h -4.86 A 5.68,5.68 0 0 1 99.27,63.57 V 5.69 c 0,-0.72 0.58,-1.32 1.3,-1.32 h 4.87 a 5.68,5.68 0 0 1 5.67,5.7 v 18.28 c 3.5,-3.52 8.17,-5.4 14.1,-5.4 10.77,0 17.95,7.74 17.95,18.9 M 160,41.6 h 21.64 c -1.52,-5.77 -5.84,-8.29 -10.6,-8.29 -4.48,0 -9.6,2.7 -11.04,8.29 m 32.44,8.37 h -32.8 c 1.18,6.5 5.76,10.03 11.22,10.03 3.33,0 7.24,-0.18 10.42,-4.94 0.29,-0.45 0.83,-0.7 1.36,-0.58 l 8.1,1.72 c 0.83,0.17 1.3,1.09 0.93,1.84 -4.14,8.36 -11.55,12.14 -20.8,12.14 -12.66,0 -22.98,-9.22 -22.98,-23.36 0,-14.15 10.32,-23.88 23.16,-23.88 11.93,0 22.26,9.28 22.7,22.98 v 2.74 a 1.3,1.3 0 0 1 -1.3,1.31 m 34.76,1.09 v -0.54 h -13.1 c -3.78,0 -6.3,2.07 -6.3,5.14 0,3.33 3.05,5.49 7.64,5.49 6.27,0 11.76,-4.33 11.76,-10.1 m 11.3,-11.16 v 28.06 a 1.31,1.31 0 0 1 -1.3,1.31 h -6.34 a 3.68,3.68 0 0 1 -3.66,-3.69 c -3.06,2.98 -7.55,4.6 -13.65,4.6 -10.23,0 -17.06,-5.42 -17.06,-14.25 0,-8.66 6.47,-14.43 17.78,-14.43 h 12.93 v -0.72 c 0,-4.5 -3.06,-7.57 -7.64,-7.57 -2.3,0 -6.94,-0.1 -8.11,3.65 a 1.3,1.3 0 0 1 -1.49,0.87 l -8.03,-1.59 a 1.33,1.33 0 0 1 -0.98,-1.7 c 2.25,-7.94 10.88,-11.5 17.9,-11.5 11.84,0 19.65,6.04 19.65,16.94"
         id="path8-1-3-53-2-2-15" /><path
         fill="url(#a)"
         d="M 60.16,4 C 55.32,4 50.53,5.89 47.08,9.88 a 187.2,187.2 0 0 0 -7.49,9.29 c -0.06,0.1 -6.75,10.21 -14,13.7 h 0.02 a 17.03,17.03 0 0 1 -5.52,1.94 19.17,19.17 0 0 1 -15,-3.69 0.67,0.67 0 0 0 -1.07,0.67 57.66,57.66 0 0 0 7.16,17.83 C 24.1,71.37 38.63,70.35 38.63,70.35 h 0.59 c 3.39,0 20.77,-1.4 36.89,-27.61 A 29.07,29.07 0 0 0 80.5,27.55 V 27.33 C 80.47,20.09 77.66,13.5 73.45,9.4 A 19.12,19.12 0 0 0 60.17,4 Z"
         id="path9-8-6-9-3-4-3"
         style="fill:url(#linearGradient2)" /><path
         fill="url(#b)"
         d="M 20.24,4 C 17.99,4.01 15.68,4.51 13.36,5.52 7.92,7.88 4.14,14.48 4,23.55 c 0,0.78 0.27,1.55 0.78,2.15 2.7,3.1 7.77,7.1 15.57,5.88 5.27,-0.83 9.78,-5.24 12.94,-9.36 0,0 1.8,-2.49 3,-5.79 0.12,-0.36 0.19,-0.73 0.19,-1.1 v -0.08 c 0,-0.67 -0.22,-1.33 -0.6,-1.89 C 31.72,7.37 26.28,4.03 20.41,4 Z"
         id="path10-7-3-9-1-4-5"
         style="fill:url(#linearGradient3)" /></g></g></svg>
