<?xml version="1.0" encoding="UTF-8" standalone="no"?>
<!-- Created with Inkscape (http://www.inkscape.org/) -->

<svg
   width="349.99976"
   height="216.30518"
   viewBox="0 0 92.604103 57.230742"
   version="1.1"
   id="svg1"
   xml:space="preserve"
   xmlns="http://www.w3.org/2000/svg"
   xmlns:svg="http://www.w3.org/2000/svg"><defs
     id="defs1" /><g
     id="layer1"
     transform="translate(1127.6444,-880.54484)"><rect
       style="fill:#000000;fill-opacity:1;stroke-width:0.204147;stroke-linecap:round;stroke-linejoin:round;stroke-miterlimit:21.4;paint-order:markers fill stroke"
       id="rect1-50-6-9-4-3-6"
       width="92.604164"
       height="57.230698"
       x="-1127.6444"
       y="880.54486" /><path
       id="path8-1-3-53-2-2-15-0"
       style="fill:#000000;fill-opacity:1;stroke:#ffffff;stroke-width:1.05833;stroke-linecap:round;stroke-linejoin:round;stroke-dasharray:none;stroke-opacity:1;paint-order:stroke fill markers"
       d="m -1108.6285,900.94242 c -0.5572,0.002 -1.1291,0.12605 -1.7037,0.37621 -1.3474,0.58454 -2.284,2.21937 -2.3187,4.46588 0,0.19319 0.067,0.38417 0.1932,0.53278 0.6688,0.76783 1.9246,1.75842 3.8566,1.45624 1.3053,-0.20558 2.4224,-1.29774 3.205,-2.3182 0,0 0.4459,-0.61718 0.7431,-1.43454 0.03,-0.0892 0.047,-0.18069 0.047,-0.27234 v -0.0196 c 0,-0.16595 -0.054,-0.32948 -0.1488,-0.46819 -1.0303,-1.48363 -2.3774,-2.31078 -3.8313,-2.31821 z m 9.8852,0 c -1.1979,6.8e-4 -2.3831,0.4687 -3.237,1.45625 a 46.366679,46.366679 0 0 0 -1.8552,2.30115 c -0.015,0.0248 -1.6718,2.52865 -3.4675,3.39307 a 4.2180798,4.2180798 0 0 1 -1.3673,0.48059 4.7481262,4.7481262 0 0 1 -3.7155,-0.91415 0.16594912,0.16594912 0 0 0 -0.2651,0.16639 14.281532,14.281532 0 0 0 1.7735,4.41576 c 3.2001,5.38716 6.7991,5.13457 6.7991,5.13457 h 0.1462 c 0.8397,0 5.1442,-0.34652 9.1369,-6.83835 a 7.2002102,7.2002102 0 0 0 1.0873,-3.76256 v -0.0543 c -0.01,-1.79324 -0.7035,-3.42556 -1.7462,-4.44107 a 4.735742,4.735742 0 0 0 -3.2866,-1.33739 z m 45.9259,0.062 c -0.1111,0 -0.2031,0.0938 -0.2031,0.20773 v 14.58878 0.005 a 1.3003476,1.3003476 0 0 0 1.2955,1.30276 h 1.4857 a 0.20805561,0.20805561 0 0 0 0.2057,-0.20567 V 902.3072 a 1.3003476,1.3003476 0 0 0 -1.2976,-1.30276 z m -35.9146,0.0294 c -0.1783,0 -0.3219,0.14878 -0.3219,0.32711 v 14.33608 a 1.4068522,1.4068522 0 0 0 1.4071,1.40663 h 1.2036 a 0.32199083,0.32199083 0 0 0 0.3219,-0.32453 v -4.60695 c 0,-2.71958 1.0925,-3.83904 2.7569,-3.83904 1.3598,0 2.2464,1.05027 2.2464,2.61069 v 4.75527 a 1.4068522,1.4068522 0 0 0 1.4066,1.40714 h 1.2041 a 0.32199083,0.32199083 0 0 0 0.3219,-0.32194 v -6.45955 -0.008 c 0,-2.76417 -1.7787,-4.68086 -4.4462,-4.68086 -1.4688,0 -2.6254,0.46553 -3.4923,1.33739 v -4.52789 a 1.4068522,1.4068522 0 0 0 -1.404,-1.4118 z m 29.299,4.59714 c -1.7388,0 -3.8765,0.88178 -4.4338,2.8484 a 0.32942138,0.32942138 0 0 0 0.2428,0.42116 l 1.9891,0.39378 a 0.32199083,0.32199083 0 0 0 0.3689,-0.21549 c 0.2898,-0.92885 1.439,-0.90434 2.0087,-0.90434 1.1343,0 1.8924,0.76075 1.8924,1.87534 v 0.17828 h -3.2024 c -2.8013,0 -4.4039,1.42898 -4.4039,3.57394 0,2.18706 1.6917,3.5295 4.2256,3.5295 1.5108,0 2.6227,-0.40136 3.3807,-1.13946 a 0.91148172,0.91148172 0 0 0 0.9064,0.91415 h 1.5704 a 0.32446768,0.32446768 0 0 0 0.322,-0.32452 v -6.94997 -0.005 c 0,-2.69977 -1.9343,-4.19561 -4.8669,-4.19561 z m -11.8417,0.003 c -3.1803,0 -5.7366,2.40963 -5.7366,5.91437 0,3.50227 2.556,5.78621 5.6917,5.78621 2.2911,0 4.1267,-0.9364 5.1521,-3.00705 0.092,-0.18576 -0.025,-0.41369 -0.2305,-0.45579 l -2.0066,-0.42581 c -0.1312,-0.0297 -0.2644,0.0322 -0.3364,0.14366 -0.7877,1.17896 -1.7564,1.22369 -2.5812,1.22369 -1.3524,0 -2.4864,-0.87464 -2.7786,-2.4846 h 8.124 v 0 a 0.32199083,0.32199083 0 0 0 0.3224,-0.32453 v -0.67851 c -0.109,-3.39329 -2.6676,-5.69164 -5.6224,-5.69164 z m 0,2.56832 c 1.179,0 2.2487,0.62447 2.6251,2.05362 h -5.3599 c 0.3567,-1.38456 1.6252,-2.05362 2.7348,-2.05362 z m 10.6675,4.26279 h 3.2448 v 0.13384 c 0,1.42784 -1.361,2.49907 -2.913,2.49907 -1.1369,0 -1.8919,-0.53533 -1.8919,-1.36012 0,-0.76039 0.6238,-1.27279 1.5601,-1.27279 z" /></g></svg>
