<?xml version="1.0" encoding="UTF-8" standalone="no"?>
<!-- Created with Inkscape (http://www.inkscape.org/) -->

<svg
   width="350"
   height="216.30493"
   viewBox="0 0 92.604168 57.230678"
   version="1.1"
   id="svg1"
   xml:space="preserve"
   xmlns="http://www.w3.org/2000/svg"
   xmlns:svg="http://www.w3.org/2000/svg"><defs
     id="defs1" /><g
     id="layer1"
     transform="translate(849.8319,-823.31418)"><rect
       style="fill:#ffffff;fill-opacity:1;stroke-width:0.204147;stroke-linecap:round;stroke-linejoin:round;stroke-miterlimit:21.4;paint-order:markers fill stroke"
       id="rect1-50-3-0-2-7"
       width="92.604164"
       height="57.230698"
       x="-849.83191"
       y="823.31415" /><path
       d="m -829.68001,854.1453 -0.63032,3.93499 h -8.13737 l 0.15289,-0.95528 1.18429,-0.32454 1.54722,-9.0161 -1.08878,-0.32475 0.15268,-0.97405 h 5.10029 l -0.19104,1.12693 -1.64275,0.32475 -1.50905,8.65297 2.97994,0.24842 0.84054,-2.71253 z m 4.00485,4.10686 q -1.64275,0 -2.44513,-0.72586 -0.80218,-0.72583 -0.80218,-2.27304 0,-0.99345 0.30555,-2.2349 0.32477,-1.26083 0.70687,-1.92933 0.70666,-0.55396 1.92932,-1.24163 1.24145,-0.70667 1.62355,-0.70667 3.20895,0 3.20895,2.97972 0,1.01241 -0.32455,2.23489 -0.30577,1.22266 -0.68767,1.96748 -0.49683,0.47765 -1.8338,1.20348 -1.33697,0.72586 -1.68113,0.72586 z m 0.21003,-1.24166 q 0.11471,0 0.26739,-0.0381 0.24821,-0.0382 0.85954,-0.38212 0.32476,-0.89771 0.59236,-2.10119 0.26718,-1.20346 0.26718,-2.29224 0,-0.84034 -0.36293,-1.31778 -0.34371,-0.47763 -0.95505,-0.47763 -0.24821,0 -0.47764,0.0763 -0.26718,0.0956 -0.59193,0.76421 -0.30578,0.66848 -0.51582,1.71908 -0.21003,1.0314 -0.21003,2.19672 0,0.93589 0.28637,1.39432 0.30578,0.45845 0.84056,0.45845 z m 9.25032,-4.22136 q 0.99323,0.6493 1.58539,1.22225 0.61112,0.55419 0.61112,1.28004 0,0.22921 -0.0763,0.57294 -0.0571,0.34395 -0.15268,0.57317 -0.38211,0.5156 -1.33717,1.16512 -0.93588,0.6495 -1.29902,0.6495 -0.66847,0 -1.81461,-0.11473 -1.14611,-0.0953 -1.91014,-0.21003 l 0.51583,-2.92256 h 0.91689 l 0.2482,1.49005 q 0.535,0.17188 1.10795,0.30558 0.59215,0.11471 0.82138,0.11471 0.15289,0 0.36293,-0.30577 0.22922,-0.32476 0.22922,-0.55398 0,-0.66849 -1.45169,-1.48985 -0.97406,-0.55398 -1.43271,-1.06979 -0.43926,-0.53479 -0.43926,-1.27981 0,-0.26741 0.0575,-0.63031 0.0763,-0.36293 0.21003,-0.59215 0.47764,-0.49662 1.37536,-1.12694 0.8977,-0.6495 1.14611,-0.6495 0.61113,0 1.60457,0.11471 1.01222,0.0953 1.6999,0.21003 l -0.49641,2.59781 h -0.89792 l -0.26738,-1.26063 q -1.49008,-0.36292 -1.87197,-0.36292 -0.15289,0 -0.34395,0.24821 -0.19104,0.22923 -0.19104,0.59234 0,0.34375 0.28657,0.61114 0.30557,0.2674 0.68767,0.49641 0.38211,0.22943 0.51581,0.32496 z m 3.76042,-0.19107 h 4.62245 l -0.30557,1.64275 h -4.62266 z m 7.24278,5.65409 q -0.11471,0 -0.4013,-0.28659 -0.28637,-0.28637 -0.49642,-0.63033 -0.21024,-0.36291 -0.19104,-0.55396 0.1145,-0.89771 0.97405,-6.11252 h -1.24166 l 0.13369,-0.82136 1.35637,-0.55399 1.64273,-1.87195 q 0.19107,0 0.80219,0.26738 l -0.26738,1.73827 h 1.8146 l -0.22922,1.24165 h -1.79542 q -0.45844,2.7315 -0.66869,4.04949 -0.21004,1.29901 -0.21004,1.5664 0,0.19106 0.0575,0.2866 0.0571,0.0955 0.21003,0.11471 0.13371,0.0379 1.50905,0.0379 l -0.11471,1.08878 q -0.72585,0.13389 -1.68091,0.28657 -0.95508,0.15289 -1.2035,0.15289 z m 7.44281,0 q -1.64276,0 -2.44514,-0.72586 -0.80218,-0.72583 -0.80218,-2.27304 0,-0.99345 0.30557,-2.2349 0.32475,-1.26083 0.70686,-1.92933 0.70665,-0.55396 1.92931,-1.24163 1.24145,-0.70667 1.62357,-0.70667 3.20893,0 3.20893,2.97972 0,1.01241 -0.32455,2.23489 -0.30577,1.22266 -0.68768,1.96748 -0.49682,0.47765 -1.83378,1.20348 -1.33698,0.72586 -1.68113,0.72586 z m 0.21003,-1.24166 q 0.11472,0 0.26739,-0.0381 0.24821,-0.0382 0.85954,-0.38212 0.32475,-0.89771 0.59236,-2.10119 0.26719,-1.20346 0.26719,-2.29224 0,-0.84034 -0.36293,-1.31778 -0.34373,-0.47763 -0.95507,-0.47763 -0.24819,0 -0.47763,0.0763 -0.26719,0.0956 -0.59195,0.76421 -0.30577,0.66848 -0.5158,1.71908 -0.21003,1.0314 -0.21003,2.19672 0,0.93589 0.28636,1.39432 0.30578,0.45845 0.84057,0.45845 z m 10.62567,-2.65516 q 0.17186,0.36291 0.59214,1.1653 0.43926,0.7832 0.66848,1.10796 l 0.99325,0.26739 -0.11472,0.76402 q -2.19651,0.59215 -2.33021,0.59215 -0.28658,0 -0.85953,-1.22247 -0.55398,-1.22247 -0.84057,-2.19672 l 0.15289,-0.89771 q 0.78321,-0.21023 1.35617,-0.84054 0.59234,-0.63033 0.59234,-1.31821 0,-0.22902 -0.13389,-0.40088 -0.11473,-0.17207 -0.38213,-0.17207 -0.0955,0 -0.764,0.84055 -0.66849,0.84057 -1.35617,1.75746 l -0.43947,2.5978 q -0.0189,0.0763 -0.0189,0.22923 0,0.42007 0.32475,0.53479 l -0.0574,0.68766 q -1.96749,0.40111 -2.1012,0.40111 -0.0955,0 -0.34373,-0.28659 -0.24842,-0.28637 -0.22943,-0.42028 l 1.81461,-10.33388 -0.87852,-0.21024 0.15288,-0.84055 q 0.59215,-0.17167 1.41352,-0.36293 0.84055,-0.19085 1.01242,-0.19085 0.0953,0 0.32454,0.30558 0.24842,0.30576 0.22945,0.42026 l -0.99345,6.16987 h 0.11471 q 0.47764,-0.82137 0.63032,-1.08875 1.24165,-2.19672 1.35615,-2.19672 2.55963,0 2.55963,1.92931 0,1.16511 -0.70664,1.92933 -0.68768,0.74483 -1.73826,1.27962 z m 10.01329,-3.38102 q 0,0.95527 -0.70665,1.70011 -0.70688,0.72583 -1.77644,1.14612 -1.06978,0.42027 -2.12037,0.49661 -0.0189,0.17187 -0.0189,0.49662 0,0.97426 0.24819,1.41351 0.26741,0.43948 0.9361,0.43948 0.4964,0 2.29223,-0.57317 l 0.24821,0.99345 q -0.72583,0.34373 -1.89094,0.764 -1.14613,0.40111 -1.45169,0.40111 -1.26084,0 -2.00587,-0.80218 -0.74482,-0.80241 -0.74482,-2.10119 0,-1.08878 0.30556,-2.33043 0.32476,-1.26083 0.72585,-1.92933 0.45844,-0.43925 1.8146,-1.14611 1.37536,-0.72584 1.73826,-0.72584 1.08877,0 1.73827,0.42028 0.66849,0.40109 0.66849,1.33696 z m -3.32365,-0.47764 q -0.34374,0.11471 -0.68767,0.95528 -0.34375,0.84057 -0.5156,1.98648 0.87852,-0.15269 1.58516,-0.78301 0.72606,-0.63051 0.72606,-1.43269 0,-0.38211 -0.19106,-0.57296 -0.19104,-0.21025 -0.53477,-0.21025 -0.22945,0 -0.38212,0.0575 z m 10.71431,6.18907 0.82138,0.21024 -0.13371,0.84056 q -2.3304,0.51561 -2.46411,0.51561 -0.0956,0 -0.34393,-0.28659 -0.24821,-0.28637 -0.22923,-0.42028 l 0.93609,-5.04274 q 0.0575,-0.32475 0.0575,-0.59234 0,-0.63011 -0.45845,-0.63011 -0.15289,0 -1.56641,1.87197 -0.19105,0.22921 -0.53478,0.68767 l -0.43948,2.55963 q -0.0189,0.0763 -0.0189,0.21004 0,0.42028 0.32474,0.55398 l -0.0383,0.68766 q -1.96727,0.40111 -2.10097,0.40111 -0.0955,0 -0.34394,-0.28659 -0.24822,-0.28637 -0.22923,-0.42028 l 1.20348,-6.74284 -0.85954,-0.21003 0.13349,-0.84056 q 0.61133,-0.17187 1.43291,-0.34373 0.84035,-0.19105 1.01222,-0.19105 0.0955,0 0.32475,0.30556 0.22923,0.30577 0.21004,0.42028 l -0.3819,2.55963 h 0.11471 l 0.28638,-0.51579 q 0.19105,-0.34373 0.8977,-1.54723 0.72585,-1.22245 0.80239,-1.22245 1.33697,0 1.91014,0.49661 0.59215,0.47764 0.59215,1.54722 0,0.49662 -0.11472,1.18429 z"
       id="path1-5-4-0-9"
       style="stroke-width:0.8343;paint-order:markers stroke fill" /></g></svg>
