<?xml version="1.0" encoding="UTF-8" standalone="no"?>
<!-- Created with Inkscape (http://www.inkscape.org/) -->

<svg
   width="350"
   height="216.30518"
   viewBox="0 0 92.604168 57.230742"
   version="1.1"
   id="svg1"
   xml:space="preserve"
   xmlns="http://www.w3.org/2000/svg"
   xmlns:svg="http://www.w3.org/2000/svg"><defs
     id="defs1" /><g
     id="layer1"
     transform="translate(942.43608,-880.54484)"><rect
       style="fill:#000000;fill-opacity:1;stroke-width:0.204147;stroke-linecap:round;stroke-linejoin:round;stroke-miterlimit:21.4;paint-order:markers fill stroke"
       id="rect1-50-2-9-1-3"
       width="92.604164"
       height="57.230698"
       x="-942.4361"
       y="880.54486" /><path
       d="m -925.60245,901.55296 -5.1361,3.47332 -0.3121,9.31973 5.9143,2.00342 7.5424,4.06364 3.4634,-2.34148 -3.094,-1.11039 -5.3134,-1.92491 2.1888,-1.4006 0.3503,-10.18588 z m 46.0425,0.27771 -4.1047,2.6258 -0.1358,3.02988 -1.8058,2.11823 1.798,-0.0203 -0.2522,6.02015 2.0994,1.03801 2.0578,-1.54394 -1.4694,-1.15023 0.1242,-4.53586 1.2486,-0.0259 1.993,-2.04632 -3.2241,0.0417 0.1391,-3.08127 3.2585,0.70725 2.0687,-1.70873 z m -12.0717,1.09412 -2.8016,1.89686 -0.027,1.68798 -3.7669,-0.69547 -3.7394,2.4919 v 3.47969 l 3.5016,1.24406 v 2.07414 l -2.0579,-1.15683 -2.1701,1.44893 -4.2718,-1.64531 0.04,-2.20239 4.2791,-1.24029 0.1375,-2.01355 -2.7359,-2.51854 -4.2577,2.72293 -0.2454,6.61519 5.0993,1.63376 1.9532,-1.30112 3.0202,1.32068 4.1282,-2.13496 -0.03,-3.55372 -3.59,-1.19667 0.059,-2.60954 2.7475,0.81806 1.8985,-1.5536 -0.1474,9.21505 2.4229,1.01515 2.5772,-1.6927 -1.965,-0.95715 0.03,-5.6321 2.2762,-1.65026 -2.3203,-0.0141 z m -35.7804,0.93382 3.8819,1.19691 -0.069,8.89183 -3.9296,-1.2747 z m 9.9298,1.98927 -2.6484,1.89214 1.3947,0.64667 -0.2416,6.87333 2.5974,0.94371 2.3618,-0.84163 1.8575,1.37962 2.4266,-1.61089 -1.4765,-1.3155 0.1365,-6.56638 -1.527,-1.40131 -2.4655,1.82708 1.1569,0.74143 -0.1363,5.9829 -2.0176,-0.81735 0.1639,-6.36222 z m 53.2157,0.013 -2.9752,1.5635 -1.8775,-1.41286 -2.1753,1.70024 1.3862,1.28626 -0.2253,6.28089 -1.5105,-1.35274 -0.01,-6.70807 -3.631,-1.28673 -2.1041,0.86874 -1.6267,2.47681 2.5261,0.004 1.071,-1.57482 1.5543,1.12406 -0.1261,0.82796 -5.1054,2.6225 -0.3586,3.17369 2.0355,1.18135 3.2833,-1.26976 2.0616,1.26339 1.9372,-1.31856 -0.011,0.32157 1.3346,1.02033 2.7564,-1.30583 -1.2269,-1.30205 0.087,-5.7488 2.1572,0.97129 -0.058,6.39547 1.5215,0.99605 2.3589,-1.35604 -1.158,-1.16886 0.022,-6.89007 z m -42.5998,1.70424 1.8287,1.03071 -1.8678,1.82967 z m 32.628,4.23552 -0.1556,2.51782 -2.9407,-0.6891 z m -12.8921,1.49372 a 1.6075891,1.6075891 0 0 0 -1.6075,1.60759 1.6075891,1.6075891 0 0 0 1.6078,1.60758 1.6075891,1.6075891 0 0 0 1.6073,-1.60782 1.6075891,1.6075891 0 0 0 -1.6076,-1.60735 z"
       stroke-width="0.943003"
       paint-order="markers stroke fill"
       id="path1-3-4-6-5-8-3-9"
       style="fill:#000000;fill-opacity:1;stroke:#ffffff;stroke-width:1.05833;stroke-dasharray:none;stroke-opacity:1" /></g></svg>
