<?xml version="1.0" encoding="UTF-8" standalone="no"?>
<!-- Created with Inkscape (http://www.inkscape.org/) -->

<svg
   width="350"
   height="216.30493"
   viewBox="0 0 92.604168 57.230678"
   version="1.1"
   id="svg1"
   xml:space="preserve"
   xmlns="http://www.w3.org/2000/svg"
   xmlns:svg="http://www.w3.org/2000/svg"><defs
     id="defs1" /><g
     id="layer1"
     transform="translate(664.62346,-823.31418)"><rect
       style="fill:#18a30d;fill-opacity:0;stroke-width:0.204147;stroke-linecap:round;stroke-linejoin:round;stroke-miterlimit:21.4;paint-order:markers fill stroke"
       id="rect1-50-93-8-5-8"
       width="92.604164"
       height="57.230698"
       x="-664.62347"
       y="823.31415" /><g
       id="g168-4-0-9-04"
       transform="matrix(0.60941582,0,0,0.60941582,-521.79881,-353.46505)"><path
         id="path145-1-3-6-8-8-5-4-6-2-3-2-6"
         style="-inkscape-font-specification:'Snell Roundhand Heavy';fill:#ffffff;stroke-linecap:round;stroke-miterlimit:9.8;paint-order:stroke fill markers"
         d="m -196.44671,1957.4836 c -2.02679,-0.05 -9.68818,0.4792 -9.99036,11.335 0,1.0755 -0.0608,2.6609 -0.3513,3.8695 -0.27924,1.3799 -0.89414,2.2634 -1.04108,2.4409 -0.001,6e-4 -0.003,0 -0.004,0 -0.76908,0.8616 -2.33045,0.9223 -2.84386,0.5821 0.32593,-0.2561 1.16407,-1.3296 1.16409,-2.9554 0,-3.2521 -3.75754,-5.2036 -6.48829,-3.377 -0.92042,0.5937 -2.41183,2.1758 -2.27198,4.6648 0,3.0166 1.82911,4.7428 2.92383,5.5059 1.74881,1.2187 3.8681,1.6426 5.64648,1.6426 4.1276,0 7.01229,-1.4828 8.6877,-3.3973 1.37804,3.1455 6.56696,4.915 11.71689,1.3984 1.46511,1.6427 5.19367,2.7138 8.93359,1.1758 0.16744,0.3244 0.49834,0.5318 0.86328,0.541 l 7.02344,-0.3105 c 0.37359,-0.017 0.70662,-0.2405 0.86328,-0.5801 0.92535,-1.921 2.33754,-4.1378 2.93969,-4.7905 0.85368,0.787 1.98178,1.1334 3.1039,1.3119 0.19211,1.1698 0.69593,2.2849 1.63672,3.1211 1.20326,1.0696 2.76353,1.4453 4.32813,1.4453 1.71588,0 3.36001,-0.3714 4.84179,-1.1465 0.43024,-0.225 0.83543,-0.5214 1.21094,-0.8203 0.66404,0.8103 2.06355,1.9668 4.64258,1.9668 0.63816,0 4.243,-0.1108 7.00598,-2.526 0.29788,0.7025 1.54673,2.9945 4.99608,2.4492 -0.2928,0.7444 -0.38314,1.5321 -0.31246,2.3223 -15.46661,1.0529 -33.68413,0.1931 -49.30859,-0.668 -8.01019,-0.4416 -15.31802,-0.8842 -21.10352,-1.0547 -4.96685,-0.3142 -9.87181,-0.2226 -14.59961,1.3457 -0.80847,0.2676 -0.93379,1.3588 -0.20703,1.8027 l 1.83594,1.1231 c 3.65015,2.2321 5.56272,3.8195 6.66015,5.7168 1.09681,1.896 1.55839,4.4327 1.73243,8.8476 l 0.0586,1.502 c 0.028,0.7141 0.77421,1.1692 1.42188,0.8672 l 1.36523,-0.6348 c 7.01153,-3.272 14.45126,-4.1997 24.84375,-4.5644 10.37219,-0.3641 23.72433,-0.1652 42.23242,-1.2481 14.32816,-0.8383 25.79373,-4.4683 33.95117,-8.8848 6.48209,-3.5095 11.057129,-7.6115 13.187499,-11.4375 1.06957,-1.9209 1.61674,-3.95 1.10742,-5.8554 -0.52726,-1.9726 -2.17306,-3.3813 -4.32421,-4 -2.807619,-0.8074 -5.977989,0.5227 -8.748049,2.0176 -0.75461,0.4072 -1.47683,0.8508 -2.18164,1.3046 l 0.94726,-1.6191 c 0.402,-0.6837 -0.11387,-1.5409 -0.90625,-1.5059 l -7.15234,0.3086 c -0.027,0.01 -0.0537,0.016 -0.0801,0.025 -0.65364,-0.2465 -1.34334,-0.3691 -2.03906,-0.3691 -1.13966,0 -2.25409,0.2397 -3.32031,0.664 -0.067,-0.4998 -0.49569,-0.8716 -1,-0.8671 l -14.21094,0.4277 c -0.34498,0.01 -0.66023,0.1979 -0.83398,0.4961 -0.20185,0.3682 -0.42465,0.7227 -0.65048,1.0761 -0.58436,-0.8941 -1.44012,-1.5226 -2.65625,-1.7305 0.86773,-1.4228 1.78893,-2.927 2.90234,-4.7363 l 1.5293,-2.4805 c 0.42839,-0.6929 -0.10721,-1.5799 -0.91993,-1.5234 l -7.38476,0.5059 c -0.32098,0.022 -0.61172,0.1972 -0.78125,0.4707 l -5.58013,9.0097 c -0.24504,-0.2448 -0.51901,-0.47 -0.86133,-0.6387 -0.9636,-0.4889 -2.02518,-0.674 -3.10156,-0.6758 h -0.0156 c -0.87386,-0.011 -1.72521,0.1569 -2.51953,0.4004 -0.13318,-0.4194 -0.52485,-0.7024 -0.96484,-0.6972 -2.55183,0.1366 -5.11368,-0.062 -7.5783,0.5507 l -6.21289,0.1738 c -0.35017,0.01 -0.66951,0.2028 -0.84179,0.5078 l -1.32813,2.3418 c -0.0705,-0.1043 -0.83091,-1.1231 -1.33977,-1.5649 -0.55295,-0.5133 -1.19077,-0.9133 -1.88086,-1.209 -2.04709,-0.8772 -5.58754,-0.7071 -8.60938,1.1758 -1.33944,-1.7359 -3.91898,-1.7286 -5.0039,-1.6387 1.09983,-0.8656 1.62122,-2.1778 1.66211,-3.5566 0,-0.9163 -0.22497,-1.8644 -0.77149,-2.6914 -0.44564,-0.689 -1.04869,-1.2538 -1.75,-1.6602 -1.6563,-1.0236 -3.86238,-0.9917 -3.89476,-1.0183 z m 94.2793,14.5293 c -0.19848,0.2415 -0.4319,0.5076 -0.77149,0.8106 -1.60595,1.4327 -4.73524,3.3586 -8.81054,5.3672 -0.34269,0.1689 -0.71874,0.3279 -1.09961,0.4863 0.53876,-0.376 1.05144,-0.7558 1.50781,-1.0996 3.22286,-2.4281 5.76224,-4.0176 7.5332,-4.8945 0.68029,-0.3369 1.21238,-0.536 1.64063,-0.67 z" /><path
         id="path4-4-7-1-4-9-6-9-3-2-5-0"
         style="-inkscape-font-specification:'Snell Roundhand Heavy';fill:#cc3433;stroke-linecap:round;stroke-miterlimit:9.8;paint-order:stroke fill markers"
         d="m -196.46811,1959.4566 c -3.29116,0 -4.94356,1.375 -6.14057,2.8417 h -0.001 c -1.08471,1.4567 -1.82617,3.8829 -1.82617,6.5174 0,3.4351 -0.53922,5.1271 -0.95129,6.1058 0,0 -0.55175,1.0833 -0.95337,1.5312 -1.53355,1.7175 -5.34329,2.2534 -6.5607,-0.2811 -0.19858,-0.4634 -0.23023,-0.9552 -0.14058,-1.4454 1.03217,-0.1756 1.41888,-0.9987 1.52929,-1.9784 0,-1.153 -0.96523,-2.0764 -2.15232,-2.0764 -1.38038,0 -2.59213,1.2204 -2.60791,3.3707 0,2.0325 1.16915,3.2384 2.06861,3.8654 1.75084,1.2203 7.31121,2.7095 11.56405,-1.2811 2.08652,-2.1328 2.50579,-5.0814 2.50579,-7.1055 0,-3.1683 0.22751,-4.9841 0.61495,-6.3402 1.00658,-3.4168 3.54088,-2.6889 3.54088,-0.5092 0.0404,1.4314 -1.11411,2.3173 -2.10168,3.1662 2.81874,0.025 4.29204,-0.054 5.49672,-1.3622 0.75239,-0.8851 0.68711,-2.3715 0.1111,-3.2385 -1.12982,-1.5214 -2.66495,-1.6892 -3.99507,-1.7782 z m 56.97482,0.3416 -4.93355,0.338 c -2.25918,3.644 -4.52751,7.2823 -6.76548,10.9394 h -0.002 -0.004 c -1.01124,1.7275 -1.32568,2.5088 -1.55693,3.2295 -1.46389,1.3889 -3.00049,2.7767 -5.07452,3.0273 -1.73744,0 -1.60908,-1.865 -1.51108,-2.5171 1.35829,-0.2701 2.68437,-0.6497 3.9803,-1.1369 h 0.002 c 1.5104,-0.5987 2.97399,-1.4297 3.23636,-3.1564 0,-1.4212 -1.33334,-2.1756 -3.29282,-2.1756 -2.30465,0 -5.78414,1.5106 -7.55491,4.5088 -2.79037,0 1.0147,-4.1374 1.5958,-4.7124 l -1.27796,0.049 c -2.94673,0.2014 -3.37235,0.3539 -5.64434,2.1089 l 1.13894,-1.6836 -4.91442,0.1369 -1.99782,3.5233 c -1.21548,0.4948 -1.97013,-0.8203 -2.53886,-1.6679 -1.19536,-1.9312 -3.08445,-2.2696 -4.26175,-2.2696 -2.42957,0 -4.25882,0.9354 -5.43423,1.8051 -1.49468,1.0753 -2.26163,2.5688 -2.46703,4.3553 -0.9504,0.9387 -4.45112,4.1639 -5.95665,2.3306 -1.24827,-1.6152 0.53863,-5.1443 1.95943,-6.5082 0.89958,-0.9134 1.1184,-0.1058 1.10898,0.832 0.0281,0.6676 -0.055,1.3214 -0.17358,1.9749 5.01719,0.2665 5.615,-4.7893 0.87854,-4.7893 -2.3026,0 -4.37776,1.1596 -5.61361,2.033 -0.82673,0.629 -1.51283,1.388 -2.05258,2.2696 -0.55466,0.9059 -0.83613,1.9202 -0.83613,3.004 0,3.5627 4.45524,4.071 7.34581,2.8499 0.94473,-0.3921 1.84276,-0.935 2.68975,-1.6232 0.27049,-0.2194 0.46366,-0.4654 0.71521,-0.6914 0.10482,1.3898 1.57928,2.92 4.63614,2.92 3.71399,0 6.19145,-2.388 7.1709,-4.3015 0.31189,-0.5868 0.47284,-1.8671 0.47284,-1.8671 0,0 0.74883,0.8828 1.58755,0.711 l -2.94918,5.2012 4.60954,-0.2051 c 1.20783,-2.5878 2.96637,-4.8686 5.00264,-6.8575 -0.10033,0.8827 0.68047,2.8151 3.18236,2.8151 0.54953,0 1.01039,-0.094 1.45779,-0.2036 -0.46824,1.8751 0.0756,4.7253 3.92897,4.7253 1.4255,0 2.73865,-0.305 3.91397,-0.9198 0.95071,-0.4973 1.92176,-1.2966 2.89854,-2.1601 0.12685,0.8193 0.40627,1.558 0.97823,2.0836 1.88089,1.7283 5.10121,0.7392 5.75779,0.5121 2.58187,-0.8767 3.98319,-2.4918 4.68182,-3.3946 0.4722,-0.625 0.7667,-1.3265 1.04697,-2.0314 0.24583,0.253 0.52752,0.2964 0.85749,0.3597 -0.82113,1.4861 -1.30258,3.2227 -0.30478,4.7459 h 0.004 0.004 c 0.73008,0.8762 2.56917,1.3505 4.89272,-0.3224 h 0.003 0.006 c 0.7217,-0.5486 1.27804,-1.1105 1.42394,-1.2718 0.11907,2.1074 2.22921,2.9731 4.32622,1.9944 1.0524,-0.4758 1.93093,-1.2239 2.75615,-2.0154 0.16455,1.5192 1.11587,2.3744 2.64854,2.4286 0.84621,0 1.66763,-0.2262 2.45515,-0.6062 l -2.28307,3.329 c -1.2507,1.766 -2.85314,3.8093 -5.20123,3.8939 -3.05232,0 -3.87652,-5.9223 0.38265,-5.2569 -1.02774,-1.6572 -3.94491,-1.4684 -5.61537,-0.2881 -2.26257,1.748 -1.69821,5.7412 2.72232,6.6254 6.17187,1.2343 10.57938,-3.1614 11.98511,-4.8105 0.86607,-1.0159 1.60188,-2.1767 2.24224,-3.4396 1.69175,-0.4904 3.09475,-1.5521 4.47828,-2.5973 7.30217,-5.5014 11.0865,-6.804 12.21424,-5.8048 2.327992,2.0624 -2.21871,5.7098 -10.5363,9.8092 -1.85941,0.9164 -6.68554,3.1047 -6.87762,3.33 -1.00254,1.1761 -2.10712,2.1864 -4.04037,3.5532 -1.93325,1.3668 -4.8055,2.1744 -7.3114,2.1744 -1.77817,0 -5.88967,-0.3794 -7.59231,-3.7233 -31.76213,2.1955 -75.32681,-3.6413 -82.87505,-1.1312 7.48485,4.5771 8.99192,7.1514 9.34827,16.1917 14.73946,-6.8784 30.85877,-3.8332 67.80568,-5.9949 14.06104,-0.8228 25.23995,-4.3846 33.11477,-8.6481 12.60423,-6.8241 16.988619,-15.7096 10.370429,-17.6129 -3.681979,-1.0589 -10.890619,3.7557 -14.244089,6.7624 -0.81788,0.7245 -1.72172,1.3156 -2.69906,1.789 1.61713,-2.7352 3.2559,-5.4573 4.8612,-8.1995 l -4.73615,0.2052 -0.42581,0.8341 c -1.12954,-1.8801 -4.09404,-1.0378 -5.28547,-0.4982 -2.50484,1.1029 -4.22519,3.1408 -4.85745,5.7965 -0.38374,0.3937 -3.01233,3.148 -3.42962,2.4886 0,-1.5276 3.74792,-6.3857 5.1146,-8.9945 l -4.78007,0.1597 c -1.87556,3.8571 -4.2586,6.5655 -4.38423,6.7076 h -0.002 -0.004 c -1.63839,1.9043 -2.8536,2.411 -2.8536,1.8249 0,-0.8319 1.5067,-3.1176 3.67537,-6.3847 l 1.41018,-2.1714 -4.88497,0.1344 c -0.30773,0.5261 -2.20229,3.4977 -2.38605,3.8165 -0.44345,0.012 -0.75359,-0.164 -1.07642,-0.4377 0.12275,-0.6429 0.1349,-0.8893 0.1349,-1.1152 0,-1.805 -1.13361,-2.4805 -2.12494,-2.4805 -0.66008,0 -1.26508,0.2778 -1.64228,0.7855 -0.57058,0.7051 -0.60261,1.5526 -0.4016,2.3902 -0.71244,2.9226 -3.68837,6.9369 -5.03871,6.1652 -1.0508,-1.2506 0.50245,-3.0886 1.11517,-4.176 2.72565,-4.6135 8.37766,-13.7256 8.37766,-13.7256 z m 22.13878,10.6517 c 0,2.0748 -2.70871,6.6311 -4.52937,6.6311 -0.9616,0.084 -0.20885,-3.026 1.10581,-5.0324 2.42908,-3.4525 3.37053,-2.3852 3.42356,-1.5987 z m -63.00037,-0.7829 c 0.59075,0.1649 0.73655,1.9147 -1.22463,5.367 -1.4943,2.4639 -3.03952,3.1382 -3.45961,2.6158 -0.63552,-0.9215 0.66671,-4.4351 2.512,-6.6124 0.77842,-0.9184 1.69869,-1.502 2.17205,-1.37 z m 23.83089,2.1924 c -0.80988,0.8089 -1.57021,1.1674 -2.38284,1.4432 0.29875,-0.8707 1.77191,-3.3553 2.69681,-3.5824 0.9249,-0.227 0.4959,1.3303 -0.31397,2.1392 z" /></g></g></svg>
