<?xml version="1.0" encoding="UTF-8" standalone="no"?>
<!-- Created with Inkscape (http://www.inkscape.org/) -->

<svg
   width="350"
   height="216.30518"
   viewBox="0 0 92.604168 57.230742"
   version="1.1"
   id="svg1"
   xml:space="preserve"
   xmlns="http://www.w3.org/2000/svg"
   xmlns:svg="http://www.w3.org/2000/svg"><defs
     id="defs1" /><g
     id="layer1"
     transform="translate(1408.1019,-880.54484)"><rect
       style="fill:#000000;fill-opacity:1;stroke-width:0.204147;stroke-linecap:round;stroke-linejoin:round;stroke-miterlimit:21.4;paint-order:markers fill stroke"
       id="rect1-50-6-14-1-2-0-9"
       width="92.604164"
       height="57.230698"
       x="-1408.1019"
       y="880.54486" /><path
       style="fill:#000000;fill-opacity:1;stroke:#ffffff;stroke-width:1.05833;stroke-linecap:round;stroke-linejoin:round;stroke-miterlimit:3.1;stroke-dasharray:none;stroke-opacity:1;paint-order:stroke fill markers"
       d="m -1361.1935,904.22582 c -0.5586,-0.6518 -0.7738,-2.29627 -1.6501,-3.42549 -1.0031,-1.29248 -2.8166,-1.89137 -6.048,0.76388 0,0 -3.8952,-2.45287 -6.3741,0.87182 0,0 -2.4206,-0.52495 -4.2288,2.36229 0.018,0.0267 -2.4907,1.00141 -3.0928,1.84141 -1.0183,1.42087 -0.4944,4.28302 -0.4944,4.28302 0.1575,4.06291 0.789,9.26188 5.9702,8.28341 0,0 3.0007,1.66631 4.7179,-0.81808 l 0.5849,-0.0828 c 0,0 -0.4199,2.65983 1.2393,2.69226 7.7714,0.15191 8.4461,0.68357 9.8716,0.38459 1.4255,-0.29898 2.8556,-3.80502 2.8741,-6.03226 0.022,-2.73203 -3.7471,-3.64696 -2.6239,-6.66851 1.0267,-1.92601 0.7488,-2.71097 -0.7459,-4.45555 z"
       id="path33-1-9" /><path
       style="fill:none;fill-opacity:1;stroke:#ffffff;stroke-width:0.529167;stroke-linecap:round;stroke-linejoin:round;stroke-miterlimit:3.1;stroke-dasharray:none;stroke-opacity:1;paint-order:stroke fill markers"
       d="m -1369.0858,903.56043 c 1.9388,10.74018 8.5693,5.78417 9.0241,4.87028"
       id="path24-3-1-8" /><path
       style="fill:none;fill-opacity:1;stroke:#ffffff;stroke-width:0.529167;stroke-linecap:round;stroke-linejoin:round;stroke-miterlimit:3.1;stroke-dasharray:none;stroke-opacity:1;paint-order:stroke fill markers"
       d="m -1378.8714,910.23993 c 0,0 0.8702,6.96335 1.9255,9.23787"
       id="path25-7-5-0" /><path
       style="fill:none;fill-opacity:1;stroke:#ffffff;stroke-width:0.529167;stroke-linecap:round;stroke-linejoin:round;stroke-miterlimit:3.1;stroke-dasharray:none;stroke-opacity:1;paint-order:stroke fill markers"
       d="m -1372.3138,918.57967 c 0,0 -1.917,-7.32677 -1.941,-10.34986"
       id="path26-1-2-5" /><path
       style="fill:none;fill-opacity:1;stroke:#ffffff;stroke-width:0.529167;stroke-linecap:round;stroke-linejoin:round;stroke-miterlimit:3.1;stroke-dasharray:none;stroke-opacity:1;paint-order:stroke fill markers"
       d="m -1372.0802,918.78426 c 0,0 0.5846,-2.42088 3.7037,-2.94873 3.119,-0.52785 3.3589,0.21595 4.9425,-1.12765"
       id="path28-2-2-3" /><path
       style="fill:none;fill-opacity:1;stroke:#ffffff;stroke-width:0.529167;stroke-linecap:round;stroke-linejoin:round;stroke-miterlimit:3.1;stroke-dasharray:none;stroke-opacity:1;paint-order:stroke fill markers"
       d="m -1367.6719,908.0494 c 0,0 -0.045,2.17894 0.4736,7.62744"
       id="path29-6-2-5" /><path
       style="opacity:1;fill:#000000;fill-opacity:1;stroke:#ffffff;stroke-width:1.05833;stroke-linecap:round;stroke-linejoin:round;stroke-miterlimit:3.1;stroke-dasharray:none;stroke-opacity:1;paint-order:stroke fill markers"
       d="m -1366.2352,905.47856 c 0.733,-0.95412 2.272,-1.42193 3.7335,-0.94009 0,0 0.9401,0.83266 1.1281,1.36987 -0.3403,0.0224 -3.9774,0.72522 -4.405,0.9401 0,0 -0.5457,-0.84073 -0.4566,-1.36988 z"
       id="path30-1-4-5" /><path
       style="opacity:1;fill:#000000;fill-opacity:1;stroke:#ffffff;stroke-width:1.05833;stroke-linecap:round;stroke-linejoin:round;stroke-miterlimit:3.1;stroke-dasharray:none;stroke-opacity:1;paint-order:stroke fill markers"
       d="m -1366.8677,920.29076 -3.882,-0.15546 c -0.3243,-1.76017 3.972,-1.8729 3.882,0.15546 z"
       id="path31-7-9-4" /><path
       id="path32-7-5"
       style="fill:#000000;fill-opacity:1;stroke:#ffffff;stroke-width:1.05833;stroke-linecap:round;stroke-linejoin:round;stroke-miterlimit:3.1;stroke-dasharray:none;stroke-opacity:1;paint-order:stroke fill markers"
       d="m -1347.9605,896.32141 c -0.5893,0.01 -1.143,0.0811 -1.6372,0.1942 -3.929,0.89898 -5.2824,4.6547 -5.2824,4.6547 a 2.3466853,2.3466853 0 0 0 1.3225,3.04447 2.3466853,2.3466853 0 0 0 3.0432,-1.32164 c 0,0 0.7274,-1.51877 1.964,-1.8017 0.7574,-0.1733 1.8344,-0.13479 2.888,0.73901 0.8578,1.29394 0.5331,2.94011 -0.4454,3.78895 -0.4514,0.3916 -1.5893,1.04252 -2.6647,2.26307 -1.0754,1.22055 -1.9107,3.22669 -1.6498,5.54278 a 2.3466853,2.3466853 0 0 0 2.5944,2.06886 2.3466853,2.3466853 0 0 0 2.0693,-2.5945 c -0.1316,-1.16841 0.08,-1.43003 0.5065,-1.91431 0.4267,-0.48429 1.2453,-0.97465 2.2207,-1.82085 2.9175,-2.53089 3.5405,-7.12409 0.9724,-10.41768 a 2.34692,2.34692 0 0 0 -0.2598,-0.2822 c -1.782,-1.64281 -3.8737,-2.17222 -5.6417,-2.14316 z m -0.071,20.91878 a 2.2954892,2.2954892 0 0 0 -2.2955,2.29544 2.2954892,2.2954892 0 0 0 2.2955,2.29543 2.2954892,2.2954892 0 0 0 2.2958,-2.29543 2.2954892,2.2954892 0 0 0 -2.2958,-2.29544 z" /></g></svg>
