<?xml version="1.0" encoding="UTF-8" standalone="no"?>
<!-- Created with Inkscape (http://www.inkscape.org/) -->

<svg
   width="350"
   height="216.30493"
   viewBox="0 0 92.604168 57.230678"
   version="1.1"
   id="svg1"
   xml:space="preserve"
   xmlns:xlink="http://www.w3.org/1999/xlink"
   xmlns="http://www.w3.org/2000/svg"
   xmlns:svg="http://www.w3.org/2000/svg"><defs
     id="defs1"><linearGradient
       id="linearGradient38"><stop
         style="stop-color:#ff3b3b;stop-opacity:1;"
         offset="0"
         id="stop38" /><stop
         style="stop-color:#ca0201;stop-opacity:1;"
         offset="1"
         id="stop39" /></linearGradient><linearGradient
       xlink:href="#linearGradient38"
       id="linearGradient39"
       x1="-1352.7458"
       y1="681.21863"
       x2="-1352.7458"
       y2="700.74658"
       gradientUnits="userSpaceOnUse" /></defs><g
     id="layer1"
     transform="translate(1408.1019,-823.31418)"><rect
       style="fill:#ffffff;fill-opacity:1;stroke-width:0.204147;stroke-linecap:round;stroke-linejoin:round;stroke-miterlimit:21.4;paint-order:markers fill stroke"
       id="rect1-50-6-14-1-2-0"
       width="92.604164"
       height="57.230698"
       x="-1408.1019"
       y="823.31415" /><g
       id="g31-8-0"
       transform="matrix(0.74759013,0,0,0.74759013,-336.44492,335.27318)"
       style="stroke-width:1.24891;stroke-dasharray:none"><path
         style="opacity:1;fill:#ffc940;fill-opacity:1;stroke:#db942d;stroke-width:1.41566;stroke-linecap:round;stroke-linejoin:round;stroke-miterlimit:3.1;stroke-dasharray:none;stroke-opacity:1;paint-order:stroke fill markers"
         d="m -1370.7359,684.49527 c -0.7471,-0.87186 -1.035,-3.07156 -2.2072,-4.58204 -1.3417,-1.72886 -3.7675,-2.52996 -8.0899,1.02179 0,0 -5.2104,-3.28103 -8.5263,1.16618 0,0 -3.2379,-0.70219 -5.6566,3.15987 0.024,0.0357 -3.3316,1.33952 -4.1369,2.46313 -1.3622,1.9006 -0.6614,5.7291 -0.6614,5.7291 0.2107,5.43467 1.0554,12.38898 7.986,11.08014 0,0 4.0138,2.22891 6.3107,-1.09428 l 0.7824,-0.11074 c 0,0 -0.5616,3.55786 1.6577,3.60124 10.3953,0.2032 11.2978,0.91437 13.2046,0.51444 1.9068,-0.39992 3.8198,-5.08971 3.8445,-8.06894 0.03,-3.65445 -5.0122,-4.87829 -3.5098,-8.92001 1.3734,-2.57629 1.0016,-3.62627 -0.9978,-5.95988 z"
         id="path33-1" /><path
         style="opacity:1;fill:none;fill-opacity:1;stroke:#db942d;stroke-width:0.70783;stroke-linecap:round;stroke-linejoin:round;stroke-miterlimit:3.1;stroke-dasharray:none;stroke-opacity:1;paint-order:stroke fill markers"
         d="m -1381.2929,683.60522 c 2.5935,14.36641 11.4626,7.7371 12.071,6.51465"
         id="path24-3-1" /><path
         style="opacity:1;fill:none;fill-opacity:1;stroke:#db942d;stroke-width:0.70783;stroke-linecap:round;stroke-linejoin:round;stroke-miterlimit:3.1;stroke-dasharray:none;stroke-opacity:1;paint-order:stroke fill markers"
         d="m -1394.3824,692.53993 c 0,0 1.164,9.3144 2.5757,12.35687"
         id="path25-7-5" /><path
         style="opacity:1;fill:none;fill-opacity:1;stroke:#db942d;stroke-width:0.70783;stroke-linecap:round;stroke-linejoin:round;stroke-miterlimit:3.1;stroke-dasharray:none;stroke-opacity:1;paint-order:stroke fill markers"
         d="m -1385.6107,703.69543 c 0,0 -2.5642,-9.80051 -2.5963,-13.8443"
         id="path26-1-2" /><path
         style="opacity:1;fill:none;fill-opacity:1;stroke:#db942d;stroke-width:0.70783;stroke-linecap:round;stroke-linejoin:round;stroke-miterlimit:3.1;stroke-dasharray:none;stroke-opacity:1;paint-order:stroke fill markers"
         d="m -1385.2982,703.9691 c 0,0 0.7819,-3.23825 4.9541,-3.94431 4.1721,-0.70607 4.493,0.28885 6.6113,-1.50839"
         id="path28-2-2" /><path
         style="opacity:1;fill:none;fill-opacity:1;stroke:#db942d;stroke-width:0.70783;stroke-linecap:round;stroke-linejoin:round;stroke-miterlimit:3.1;stroke-dasharray:none;stroke-opacity:1;paint-order:stroke fill markers"
         d="m -1379.4015,689.60981 c 0,0 -0.06,2.91462 0.6334,10.2027"
         id="path29-6-2" /><path
         style="opacity:1;fill:#ffd979;fill-opacity:1;stroke:#ffd979;stroke-width:0.70783;stroke-linecap:round;stroke-linejoin:round;stroke-miterlimit:3.1;stroke-dasharray:none;stroke-opacity:1;paint-order:stroke fill markers"
         d="m -1377.4798,686.17098 c 0.9805,-1.27626 3.0391,-1.90202 4.9941,-1.2575 0,0 1.2575,1.1138 1.509,1.83238 -0.4553,0.03 -5.3204,0.97008 -5.8923,1.25751 0,0 -0.73,-1.12459 -0.6108,-1.83239 z"
         id="path30-1-4" /><path
         style="opacity:1;fill:#ffd979;fill-opacity:1;stroke:#ffd979;stroke-width:0.70783;stroke-linecap:round;stroke-linejoin:round;stroke-miterlimit:3.1;stroke-dasharray:none;stroke-opacity:1;paint-order:stroke fill markers"
         d="m -1378.3258,705.98424 -5.1927,-0.20795 c -0.4338,-2.35445 5.313,-2.50525 5.1927,0.20795 z"
         id="path31-7-9" /><path
         id="path32-7"
         style="opacity:1;fill:url(#linearGradient39);stroke:none;stroke-width:1.24891;stroke-linecap:round;stroke-linejoin:round;stroke-miterlimit:3.1;stroke-dasharray:none;stroke-opacity:1;paint-order:stroke fill markers"
         d="m -1353.035,673.92208 c -0.7883,0.013 -1.5289,0.10853 -2.1899,0.25978 -5.2556,1.2025 -7.066,6.22627 -7.066,6.22627 a 3.1389999,3.1389999 0 0 0 1.7691,4.07238 3.1389999,3.1389999 0 0 0 4.0706,-1.76787 c 0,0 0.9731,-2.03156 2.6271,-2.41001 1.0132,-0.23182 2.4538,-0.1803 3.8632,0.98852 1.1474,1.73082 0.713,3.93278 -0.5958,5.06822 -0.6039,0.52381 -2.1259,1.3945 -3.5644,3.02715 -1.4385,1.63265 -2.5559,4.31613 -2.2069,7.4142 a 3.1389999,3.1389999 0 0 0 3.4704,2.76737 3.1389999,3.1389999 0 0 0 2.768,-3.47049 c -0.1761,-1.56289 0.1068,-1.91285 0.6775,-2.56064 0.5707,-0.64779 1.6657,-1.30372 2.9705,-2.43562 3.9025,-3.3854 4.7358,-9.52941 1.3007,-13.93502 a 3.1393138,3.1393138 0 0 0 -0.3476,-0.37747 c -2.3836,-2.19748 -5.1815,-2.90563 -7.5465,-2.86677 z m -0.095,27.98162 a 3.0705183,3.0705183 0 0 0 -3.0705,3.07045 3.0705183,3.0705183 0 0 0 3.0705,3.07044 3.0705183,3.0705183 0 0 0 3.071,-3.07044 3.0705183,3.0705183 0 0 0 -3.071,-3.07045 z" /></g></g></svg>
