<?xml version="1.0" encoding="UTF-8" standalone="no"?>
<svg
   viewBox="0 0 20 20"
   fill="#0a66c2"
   width="20"
   height="20"
   version="1.1"
   id="svg1"
   sodipodi:docname="linkedin.svg"
   inkscape:version="1.4 (e7c3feb1, 2024-10-09)"
   xmlns:inkscape="http://www.inkscape.org/namespaces/inkscape"
   xmlns:sodipodi="http://sodipodi.sourceforge.net/DTD/sodipodi-0.dtd"
   xmlns="http://www.w3.org/2000/svg"
   xmlns:svg="http://www.w3.org/2000/svg">
  <defs
     id="defs1" />
  <sodipodi:namedview
     id="namedview1"
     pagecolor="#ffffff"
     bordercolor="#000000"
     borderopacity="0.25"
     inkscape:showpageshadow="2"
     inkscape:pageopacity="0.0"
     inkscape:pagecheckerboard="0"
     inkscape:deskcolor="#d1d1d1"
     inkscape:zoom="13.73945"
     inkscape:cx="17.358774"
     inkscape:cy="21.689369"
     inkscape:window-width="1792"
     inkscape:window-height="979"
     inkscape:window-x="0"
     inkscape:window-y="25"
     inkscape:window-maximized="1"
     inkscape:current-layer="svg1" />
  <path
     d="M 18.5,0 H 1.5 A 1.5,1.5 0 0 0 0,1.5 v 17 A 1.5,1.5 0 0 0 1.5,20 h 17 A 1.5,1.5 0 0 0 20,18.5 V 1.5 A 1.5,1.5 0 0 0 18.5,0 Z"
     id="path1" />
  <path
     id="path4"
     style="fill:#ffffff;fill-opacity:1"
     d="M 4.4804688 2.7519531 A 1.75 1.75 0 0 0 4.5 6.25 A 1.78 1.78 0 0 0 6.3007812 4.5 A 1.75 1.75 0 0 0 4.4804688 2.7519531 z M 13.599609 7.9003906 A 3.11 3.11 0 0 0 10.900391 9.3007812 L 10.900391 8 L 8 8 L 8 17 L 11 17 L 11 12.330078 A 0.66 0.66 0 0 1 11 12.189453 A 1.74 1.74 0 0 1 12.619141 10.330078 C 13.399141 10.330078 14 10.839766 14 12.259766 L 14 17 L 17 17 L 16.960938 11.560547 C 16.960938 8.7605469 15.149609 7.9003906 13.599609 7.9003906 z M 3 8 L 3 17 L 6 17 L 6 8 L 3 8 z " />
</svg>
